<svg xmlns="http://www.w3.org/2000/svg" width="138" height="116" fill="none" viewBox="0 0 138 116">
  <path stroke="#70778B" stroke-width="2" d="M114 8a2.667 2.667 0 0 1 2.667-2.667h10.666A2.667 2.667 0 0 1 130 8v15.994c0 1.166-1.391 1.77-2.243.974l-4.847-4.525a1.334 1.334 0 0 0-1.82 0l-4.847 4.525c-.852.796-2.243.192-2.243-.974V8Z" clip-rule="evenodd"/>
  <path fill="#878D9D" d="M6.61 108v-4.24h2.96c2.111 0 3.343-1.472 3.343-3.216 0-1.744-1.2-3.216-3.344-3.216H5.281V108H6.61Zm2.8-5.424h-2.8v-4.064h2.8c1.263 0 2.127.832 2.127 2.032 0 1.2-.864 2.032-2.128 2.032Zm8.623 5.616c2.352 0 3.824-1.824 3.824-4.064s-1.472-4.048-3.824-4.048-3.824 1.808-3.824 4.048 1.472 4.064 3.824 4.064Zm0-1.072c-1.648 0-2.576-1.408-2.576-2.992 0-1.568.928-2.976 2.576-2.976 1.648 0 2.56 1.408 2.56 2.976 0 1.584-.912 2.992-2.56 2.992Zm8.465 1.072c2 0 3.04-1.04 3.04-2.336 0-3.008-4.784-1.888-4.784-3.584 0-.688.656-1.216 1.712-1.216.992 0 1.84.416 2.304.976l.56-.832c-.624-.624-1.552-1.12-2.864-1.12-1.84 0-2.88 1.024-2.88 2.224 0 2.864 4.784 1.712 4.784 3.584 0 .768-.64 1.328-1.824 1.328-1.056 0-2.032-.512-2.544-1.104l-.624.864c.784.832 1.856 1.216 3.12 1.216Zm7.177 0c.704 0 1.136-.208 1.44-.496l-.352-.896c-.16.176-.48.32-.816.32-.528 0-.784-.416-.784-.992v-4.8h1.568v-1.056h-1.568V98.16h-1.2v2.112h-1.28v1.056h1.28v5.056c0 1.152.576 1.808 1.712 1.808Zm6.476 0c1.264 0 2.304-.416 3.072-1.184l-.576-.784c-.608.624-1.504.976-2.384.976-1.664 0-2.688-1.216-2.784-2.672h6.256v-.304c0-2.32-1.376-4.144-3.712-4.144-2.208 0-3.808 1.808-3.808 4.048 0 2.416 1.648 4.064 3.936 4.064Zm2.4-4.544h-5.072c.064-1.184.88-2.576 2.528-2.576 1.76 0 2.528 1.424 2.544 2.576ZM52.714 108V97.328h-1.2v4.112c-.624-.848-1.568-1.36-2.608-1.36-2.032 0-3.44 1.6-3.44 4.064 0 2.512 1.424 4.048 3.44 4.048 1.088 0 2.032-.56 2.608-1.344V108h1.2Zm-3.52-.88c-1.552 0-2.48-1.264-2.48-2.976s.928-2.992 2.48-2.992c.96 0 1.888.576 2.32 1.248v3.504c-.432.672-1.36 1.216-2.32 1.216Zm17.513.88v-1.184h-5.232c2.976-2.352 5.184-4.336 5.184-6.512 0-2.128-1.808-3.136-3.584-3.136-1.504 0-2.896.608-3.712 1.68l.816.848c.624-.8 1.616-1.344 2.896-1.344 1.104 0 2.224.592 2.224 1.952 0 1.84-2.08 3.616-5.92 6.64V108h7.328Zm13.812 0V97.328h-1.2v4.112c-.624-.848-1.569-1.36-2.609-1.36-2.031 0-3.44 1.6-3.44 4.064 0 2.512 1.425 4.048 3.44 4.048 1.089 0 2.033-.56 2.609-1.344V108h1.2Zm-3.52-.88c-1.552 0-2.48-1.264-2.48-2.976s.927-2.992 2.48-2.992c.96 0 1.888.576 2.32 1.248v3.504c-.433.672-1.36 1.216-2.32 1.216Zm12.19.88v-5.312c0-1.872-1.36-2.608-2.991-2.608-1.264 0-2.256.416-3.088 1.28l.56.832c.688-.736 1.44-1.072 2.368-1.072 1.12 0 1.952.592 1.952 1.632v1.392c-.624-.72-1.504-1.056-2.56-1.056-1.312 0-2.704.816-2.704 2.544 0 1.68 1.392 2.56 2.704 2.56 1.04 0 1.92-.368 2.56-1.072v.88h1.2Zm-3.327-.672c-1.12 0-1.904-.704-1.904-1.68 0-.992.784-1.696 1.904-1.696.848 0 1.664.32 2.128.96v1.456c-.464.64-1.28.96-2.128.96Zm5.538 3.696c.224.064.623.112.88.112 1.023-.016 1.808-.448 2.272-1.568l3.871-9.296h-1.311l-2.56 6.336-2.577-6.336H90.68l3.231 7.808-.511 1.168c-.273.64-.625.816-1.153.816a1.84 1.84 0 0 1-.656-.128l-.191 1.088Zm10.959-2.832c2 0 3.04-1.04 3.04-2.336 0-3.008-4.784-1.888-4.784-3.584 0-.688.656-1.216 1.712-1.216.992 0 1.84.416 2.304.976l.56-.832c-.624-.624-1.552-1.12-2.864-1.12-1.84 0-2.88 1.024-2.88 2.224 0 2.864 4.784 1.712 4.784 3.584 0 .768-.64 1.328-1.824 1.328-1.056 0-2.032-.512-2.543-1.104l-.624.864c.783.832 1.855 1.216 3.119 1.216Zm15.619-.192v-5.312c0-1.872-1.36-2.608-2.992-2.608-1.264 0-2.256.416-3.088 1.28l.56.832c.688-.736 1.44-1.072 2.368-1.072 1.12 0 1.952.592 1.952 1.632v1.392c-.624-.72-1.504-1.056-2.56-1.056-1.312 0-2.704.816-2.704 2.544 0 1.68 1.392 2.56 2.704 2.56 1.04 0 1.92-.368 2.56-1.072v.88h1.2Zm-3.328-.672c-1.12 0-1.904-.704-1.904-1.68 0-.992.784-1.696 1.904-1.696.848 0 1.664.32 2.128.96v1.456c-.464.64-1.28.96-2.128.96Zm9.074 3.808c1.888 0 3.68-.8 3.68-3.36v-7.504h-1.2v1.168c-.624-.848-1.552-1.36-2.592-1.36-2.032 0-3.44 1.536-3.44 4.016 0 2.496 1.424 4 3.44 4 1.088 0 2.032-.592 2.592-1.376v1.104c0 1.696-1.2 2.32-2.48 2.32-1.104 0-1.872-.288-2.512-1.056l-.608.896c.912.896 1.808 1.152 3.12 1.152Zm.176-4.096c-1.552 0-2.48-1.248-2.48-2.944 0-1.712.928-2.944 2.48-2.944.96 0 1.888.576 2.304 1.248v3.376c-.416.672-1.344 1.264-2.304 1.264Zm9.52 1.152c2.352 0 3.824-1.824 3.824-4.064s-1.472-4.048-3.824-4.048-3.824 1.808-3.824 4.048 1.472 4.064 3.824 4.064Zm0-1.072c-1.648 0-2.576-1.408-2.576-2.992 0-1.568.928-2.976 2.576-2.976 1.648 0 2.56 1.408 2.56 2.976 0 1.584-.912 2.992-2.56 2.992Z"/>
</svg>
