<svg xmlns="http://www.w3.org/2000/svg" width="115" height="13" fill="none" viewBox="0 0 115 13">
  <path fill="#878D9D" d="M.833 10V6.122h2.702c1.778 0 2.814-1.26 2.814-2.73S5.327.662 3.535.662h-3.5V10h.798Zm2.618-4.606H.833V1.39h2.618c1.232 0 2.058.826 2.058 2.002 0 1.176-.826 2.002-2.058 2.002Zm7.453 4.774c2.002 0 3.262-1.582 3.262-3.556s-1.26-3.542-3.262-3.542c-1.974 0-3.248 1.568-3.248 3.542 0 1.974 1.274 3.556 3.248 3.556Zm0-.658c-1.568 0-2.464-1.386-2.464-2.898 0-1.498.896-2.884 2.464-2.884 1.596 0 2.478 1.386 2.478 2.884 0 1.512-.882 2.898-2.478 2.898Zm7.364.658c1.694 0 2.534-.896 2.534-1.988 0-2.604-4.27-1.568-4.27-3.262 0-.7.644-1.232 1.694-1.232.896 0 1.624.364 2.016.896l.406-.518c-.49-.546-1.26-.994-2.422-.994-1.526 0-2.408.84-2.408 1.876 0 2.422 4.27 1.386 4.27 3.234 0 .784-.672 1.372-1.806 1.372-.952 0-1.75-.448-2.184-.994l-.434.546c.672.742 1.512 1.064 2.604 1.064Zm6.087 0c.56 0 .882-.168 1.148-.42l-.28-.56a1.056 1.056 0 0 1-.756.322c-.476 0-.7-.378-.7-.924V3.882h1.372v-.644h-1.372V1.39h-.742v1.848h-1.12v.644h1.12v4.816c0 .924.434 1.47 1.33 1.47Zm5.588 0c1.12 0 1.974-.392 2.646-1.092l-.378-.476c-.574.616-1.358.938-2.212.938-1.596 0-2.576-1.218-2.646-2.688h5.656v-.196c0-1.946-1.134-3.584-3.192-3.584-1.876 0-3.262 1.582-3.262 3.542 0 2.086 1.414 3.556 3.388 3.556Zm2.324-3.892h-4.914c.056-1.176.854-2.576 2.45-2.576 1.694 0 2.45 1.428 2.464 2.576ZM40.823 10V.662h-.742V4.33c-.546-.77-1.386-1.26-2.352-1.26-1.792 0-3.024 1.414-3.024 3.556 0 2.17 1.232 3.542 3.024 3.542a2.88 2.88 0 0 0 2.352-1.246V10h.742Zm-2.968-.49c-1.498 0-2.366-1.246-2.366-2.884s.868-2.898 2.366-2.898c.952 0 1.834.574 2.226 1.232v3.346c-.392.644-1.274 1.204-2.226 1.204Zm15.086.49v-.728h-4.914C50.73 7.088 52.9 5.212 52.9 3.154c0-1.848-1.568-2.632-2.94-2.632-1.316 0-2.45.546-3.108 1.442l.546.504c.504-.714 1.4-1.218 2.562-1.218 1.022 0 2.128.56 2.128 1.904 0 1.806-2.128 3.626-5.306 6.188V10h6.16Zm12.101 0V.662H64.3V4.33c-.546-.77-1.386-1.26-2.352-1.26-1.792 0-3.024 1.414-3.024 3.556 0 2.17 1.232 3.542 3.024 3.542A2.88 2.88 0 0 0 64.3 8.922V10h.742Zm-2.968-.49c-1.498 0-2.366-1.246-2.366-2.884s.868-2.898 2.366-2.898c.952 0 1.834.574 2.226 1.232v3.346c-.392.644-1.274 1.204-2.226 1.204Zm10.473.49V5.24c0-1.512-1.092-2.17-2.464-2.17-1.12 0-1.904.378-2.604 1.134l.406.504c.616-.7 1.274-.994 2.114-.994 1.008 0 1.82.546 1.82 1.554V6.64c-.588-.658-1.358-.966-2.296-.966-1.176 0-2.366.77-2.366 2.24 0 1.456 1.204 2.254 2.366 2.254.938 0 1.694-.308 2.296-.966V10h.728Zm-2.772-.406c-1.12 0-1.848-.714-1.848-1.666 0-.966.728-1.68 1.848-1.68.812 0 1.568.322 2.044.938V8.67c-.476.616-1.232.924-2.044.924Zm4.805 3.052c.182.056.49.098.714.098.798 0 1.372-.406 1.736-1.26l3.5-8.246h-.826l-2.436 5.908-2.464-5.908h-.812l2.856 6.818-.532 1.204c-.266.644-.574.826-1.022.826-.168 0-.434-.042-.588-.112l-.126.672Zm9.411-2.478c1.694 0 2.534-.896 2.534-1.988 0-2.604-4.27-1.568-4.27-3.262 0-.7.644-1.232 1.694-1.232.896 0 1.624.364 2.016.896l.406-.518c-.49-.546-1.26-.994-2.422-.994-1.526 0-2.408.84-2.408 1.876 0 2.422 4.27 1.386 4.27 3.234 0 .784-.672 1.372-1.806 1.372-.952 0-1.75-.448-2.184-.994l-.434.546c.672.742 1.512 1.064 2.604 1.064ZM97.463 10V5.24c0-1.512-1.091-2.17-2.463-2.17-1.12 0-1.904.378-2.605 1.134l.407.504c.615-.7 1.273-.994 2.113-.994 1.008 0 1.82.546 1.82 1.554V6.64c-.588-.658-1.358-.966-2.296-.966-1.175 0-2.365.77-2.365 2.24 0 1.456 1.204 2.254 2.365 2.254.939 0 1.695-.308 2.297-.966V10h.727Zm-2.771-.406c-1.12 0-1.848-.714-1.848-1.666 0-.966.728-1.68 1.848-1.68.812 0 1.568.322 2.044.938V8.67c-.477.616-1.233.924-2.044.924Zm7.927 3.15c1.652 0 3.052-.742 3.052-2.814V3.238h-.742V4.33c-.546-.77-1.386-1.26-2.352-1.26-1.792 0-3.024 1.4-3.024 3.542 0 2.17 1.232 3.528 3.024 3.528 1.008 0 1.876-.574 2.352-1.26v1.064c0 1.554-1.078 2.17-2.31 2.17-1.008 0-1.652-.252-2.24-.952l-.42.56c.798.812 1.526 1.022 2.66 1.022Zm.084-3.262c-1.498 0-2.366-1.232-2.366-2.87 0-1.638.868-2.884 2.366-2.884.938 0 1.834.574 2.226 1.232v3.29c-.392.658-1.288 1.232-2.226 1.232Zm8.289.686c2.002 0 3.262-1.582 3.262-3.556s-1.26-3.542-3.262-3.542c-1.974 0-3.248 1.568-3.248 3.542 0 1.974 1.274 3.556 3.248 3.556Zm0-.658c-1.568 0-2.464-1.386-2.464-2.898 0-1.498.896-2.884 2.464-2.884 1.596 0 2.478 1.386 2.478 2.884 0 1.512-.882 2.898-2.478 2.898Z"/>
</svg>
