<svg xmlns="http://www.w3.org/2000/svg" width="265" height="40" fill="none" viewBox="0 0 265 40">
  <path fill="#70778B" d="M241.176 22V8.126h-2.579l-4.368 4.389 1.685 1.768 2.308-2.35V22h2.954Zm9.411.25c2.912 0 5.575-1.27 5.575-3.849 0-1.684-1.332-2.974-2.996-3.556 1.54-.541 2.767-1.54 2.767-3.266 0-2.6-2.787-3.66-5.346-3.66-2.579 0-5.345 1.06-5.345 3.66 0 1.726 1.206 2.725 2.745 3.266-1.664.582-2.974 1.872-2.974 3.556 0 2.6 2.662 3.848 5.574 3.848Zm0-8.57c-.853-.125-2.35-.603-2.35-1.643 0-.999.977-1.581 2.35-1.581 1.352 0 2.33.582 2.33 1.58 0 1.04-1.477 1.519-2.33 1.644Zm0 6.032c-1.456 0-2.579-.666-2.579-1.685 0-1.165 1.706-1.726 2.579-1.851.853.125 2.579.686 2.579 1.851 0 1.02-1.164 1.685-2.579 1.685Zm-51.261.832c0-.915-.769-1.685-1.684-1.685-.916 0-1.664.77-1.664 1.685 0 .894.748 1.664 1.664 1.664.915 0 1.684-.77 1.684-1.664Zm5.325 0c0-.915-.769-1.685-1.685-1.685-.915 0-1.664.77-1.664 1.685 0 .894.749 1.664 1.664 1.664.916 0 1.685-.77 1.685-1.664Zm5.325 0c0-.915-.77-1.685-1.685-1.685s-1.664.77-1.664 1.685c0 .894.749 1.664 1.664 1.664.915 0 1.685-.77 1.685-1.664Zm-47.611 1.706c3.349 0 5.553-1.852 5.553-4.805 0-2.808-2.1-4.493-4.451-4.493-1.269 0-2.392.499-3.057 1.165v-3.39h6.572v-2.6h-9.526v7.966l2.059.54c.832-.79 1.768-1.123 2.912-1.123 1.581 0 2.496.832 2.496 2.06 0 1.123-.936 2.059-2.579 2.059-1.456 0-2.746-.541-3.682-1.519l-1.643 2.06c1.186 1.289 2.933 2.08 5.346 2.08ZM127.109 22v-2.87h1.789v-2.6h-1.789V8.125h-4.077L117.52 16.8v2.33h6.635V22h2.954Zm-2.954-5.47h-3.744l3.744-5.783v5.782Zm-40.269 5.72c3.328 0 5.47-1.685 5.47-4.077 0-2.08-1.83-3.183-3.244-3.328 1.54-.27 3.037-1.415 3.037-3.162 0-2.309-1.997-3.765-5.242-3.765-2.433 0-4.18.936-5.304 2.205l1.477 1.851c.978-.936 2.184-1.435 3.515-1.435 1.456 0 2.58.54 2.58 1.643 0 1.02-1.02 1.477-2.559 1.477-.52 0-1.477 0-1.726-.02V16.3a32.47 32.47 0 0 1 1.726-.042c1.934 0 2.787.5 2.787 1.602 0 1.04-.936 1.768-2.62 1.768-1.353 0-2.871-.583-3.828-1.581l-1.539 1.976c1.02 1.248 2.912 2.225 5.47 2.225Z"/>
  <path stroke="#5876C5" stroke-width="2.6" d="M29.7 38.7h31.2"/>
  <path fill="#5876C5" d="M50.42 22v-2.6h-5.658c3.598-2.621 5.553-4.68 5.553-7.051 0-2.767-2.35-4.43-5.304-4.43-1.934 0-3.993.706-5.345 2.266l1.684 1.956c.936-.978 2.143-1.602 3.724-1.602 1.144 0 2.246.603 2.246 1.81 0 1.705-1.664 3.14-7.342 7.342V22h10.441Z"/>
  <path fill="#70778B" d="M7.176 22V8.126h-2.58L.23 12.516l1.685 1.767 2.308-2.35V22h2.954Z"/>
</svg>
