<svg xmlns="http://www.w3.org/2000/svg" width="258" height="32" fill="none" viewBox="0 0 258 32">
  <path stroke="#70778B" stroke-width="2" d="M8.5 8a2.667 2.667 0 0 1 2.667-2.667h10.666A2.667 2.667 0 0 1 24.5 8v15.994c0 1.166-1.391 1.77-2.243.974l-4.847-4.525a1.333 1.333 0 0 0-1.82 0l-4.847 4.525c-.852.796-2.243.192-2.243-.974V8Z" clip-rule="evenodd"/>
  <path fill="#3A4562" d="M48.806 18.766a2.07 2.07 0 0 0-.141-.791 1.507 1.507 0 0 0-.475-.633c-.222-.188-.533-.366-.931-.536-.393-.17-.89-.343-1.494-.519a13.741 13.741 0 0 1-1.714-.624 5.99 5.99 0 0 1-1.31-.8 3.156 3.156 0 0 1-.835-1.028 2.93 2.93 0 0 1-.29-1.327 3.115 3.115 0 0 1 1.187-2.479 4.261 4.261 0 0 1 1.38-.738 5.677 5.677 0 0 1 1.784-.264c.96 0 1.775.185 2.443.554.674.363 1.187.84 1.538 1.433a3.59 3.59 0 0 1 .528 1.88h-1.688c0-.48-.102-.905-.307-1.274a2.12 2.12 0 0 0-.932-.879c-.416-.217-.944-.325-1.582-.325-.604 0-1.102.09-1.494.272-.393.182-.686.428-.88.739-.187.31-.28.665-.28 1.063 0 .27.055.516.166.739.118.216.296.419.537.606.246.188.556.36.931.518.381.159.835.311 1.363.457.726.206 1.353.434 1.88.686.528.252.961.536 1.301.853.346.31.6.665.765 1.063.17.393.255.838.255 1.336 0 .521-.106.993-.317 1.415-.21.422-.512.782-.905 1.081a4.38 4.38 0 0 1-1.415.695 6.55 6.55 0 0 1-1.828.237 6.335 6.335 0 0 1-1.75-.246 5.214 5.214 0 0 1-1.555-.739 3.867 3.867 0 0 1-1.116-1.212c-.275-.487-.413-1.05-.413-1.688h1.687c0 .44.085.817.255 1.134.17.31.402.568.695.773a3.24 3.24 0 0 0 1.01.457c.381.094.777.14 1.187.14.592 0 1.093-.081 1.503-.245.41-.164.72-.399.931-.703.217-.305.326-.665.326-1.081Zm8.666 1.608v-4.895c0-.375-.077-.7-.229-.976a1.496 1.496 0 0 0-.668-.65c-.299-.153-.668-.229-1.107-.229-.41 0-.77.07-1.081.211-.305.14-.545.325-.721.554a1.21 1.21 0 0 0-.255.738h-1.626c0-.34.088-.677.264-1.01.176-.335.428-.637.756-.906A3.78 3.78 0 0 1 54 12.56c.469-.165.99-.246 1.565-.246.69 0 1.3.117 1.828.351.533.234.949.589 1.248 1.063.304.47.457 1.058.457 1.767v4.43c0 .316.026.653.079 1.01.058.358.143.666.255.923V22h-1.697a3.035 3.035 0 0 1-.193-.747 6.02 6.02 0 0 1-.07-.879Zm.28-4.14.018 1.143h-1.643a6.07 6.07 0 0 0-1.24.114c-.363.07-.667.179-.913.325a1.546 1.546 0 0 0-.563.554 1.468 1.468 0 0 0-.193.765c0 .299.067.571.202.817s.337.442.606.589c.276.14.613.211 1.011.211.498 0 .938-.105 1.319-.316.38-.211.682-.47.905-.774.228-.305.351-.6.369-.888l.694.783c-.04.246-.152.518-.334.817a3.937 3.937 0 0 1-1.802 1.538c-.41.176-.873.264-1.388.264-.645 0-1.21-.126-1.697-.378a2.9 2.9 0 0 1-1.125-1.01 2.675 2.675 0 0 1-.395-1.433c0-.51.1-.959.299-1.345.2-.393.486-.718.861-.976a4.092 4.092 0 0 1 1.354-.598 7.143 7.143 0 0 1 1.766-.202h1.89Zm6.092 4.298 2.601-8.042h1.661L64.688 22h-1.09l.246-1.468Zm-2.171-8.042 2.68 8.086.185 1.424h-1.09l-3.445-9.51h1.67Zm11.259 9.686a4.677 4.677 0 0 1-1.802-.334 4.085 4.085 0 0 1-1.38-.958 4.261 4.261 0 0 1-.879-1.46 5.35 5.35 0 0 1-.307-1.845v-.369c0-.774.114-1.462.342-2.066a4.64 4.64 0 0 1 .932-1.546 3.991 3.991 0 0 1 1.336-.958 3.84 3.84 0 0 1 1.547-.325c.68 0 1.265.117 1.757.351a3.2 3.2 0 0 1 1.222.984c.317.416.551.909.703 1.477.153.563.229 1.178.229 1.846v.73H69.53v-1.328h5.476v-.123a4.058 4.058 0 0 0-.264-1.23 2.212 2.212 0 0 0-.703-.985c-.322-.258-.762-.387-1.318-.387a2.213 2.213 0 0 0-1.82.923 3.452 3.452 0 0 0-.518 1.117 5.653 5.653 0 0 0-.185 1.52v.37c0 .45.062.875.185 1.274.129.392.313.738.553 1.037.247.299.542.533.888.703.352.17.75.255 1.195.255.575 0 1.061-.118 1.46-.352a3.612 3.612 0 0 0 1.045-.94l.985.782c-.205.31-.466.606-.782.888-.317.28-.707.51-1.17.685-.456.176-.998.264-1.625.264Zm12.92-9.686v1.248H80.71V12.49h5.142Zm-3.402-2.31h1.626v9.466c0 .322.05.565.15.729.1.164.228.273.386.325a1.6 1.6 0 0 0 .51.08c.135 0 .275-.012.422-.036.152-.03.267-.053.343-.07L85.895 22c-.128.041-.298.08-.51.114a3.877 3.877 0 0 1-.746.062 2.55 2.55 0 0 1-1.099-.237c-.334-.159-.6-.422-.8-.791-.193-.375-.29-.88-.29-1.512v-9.457Zm4.14 7.172v-.203c0-.685.1-1.32.299-1.907a4.529 4.529 0 0 1 .861-1.538c.375-.44.83-.78 1.362-1.02a4.248 4.248 0 0 1 1.793-.368c.668 0 1.269.123 1.802.369.54.24.996.58 1.371 1.02.381.433.671.945.87 1.537.2.586.3 1.222.3 1.907v.203c0 .685-.1 1.32-.3 1.907a4.561 4.561 0 0 1-.87 1.538 3.995 3.995 0 0 1-1.362 1.02c-.527.24-1.125.36-1.793.36-.668 0-1.269-.12-1.802-.36a4.077 4.077 0 0 1-1.371-1.02 4.645 4.645 0 0 1-.861-1.538 5.89 5.89 0 0 1-.3-1.907Zm1.626-.203v.203c0 .474.056.922.167 1.344.111.416.278.785.5 1.108.23.322.514.577.853.764.34.182.736.273 1.187.273.445 0 .835-.091 1.169-.273.34-.187.62-.442.844-.764.222-.323.39-.692.5-1.108a4.97 4.97 0 0 0 .176-1.344v-.203c0-.468-.058-.91-.175-1.327a3.416 3.416 0 0 0-.51-1.116 2.423 2.423 0 0 0-.844-.773c-.334-.188-.727-.282-1.178-.282-.445 0-.838.094-1.177.282a2.53 2.53 0 0 0-.844.773 3.51 3.51 0 0 0-.501 1.116 5.116 5.116 0 0 0-.167 1.327Zm14.027-2.768V22h-1.635v-9.51h1.547l.088 1.89Zm-.334 2.505-.756-.027c.006-.65.091-1.25.255-1.801.164-.557.407-1.04.73-1.45.322-.41.723-.727 1.204-.95.48-.228 1.037-.342 1.67-.342.445 0 .855.064 1.23.193.375.123.7.32.976.589.275.27.489.615.641 1.037.153.422.229.931.229 1.53V22h-1.626v-6.258c0-.498-.085-.896-.255-1.195a1.454 1.454 0 0 0-.703-.65 2.538 2.538 0 0 0-1.072-.212c-.481 0-.882.085-1.204.255a2.03 2.03 0 0 0-.774.704 3.178 3.178 0 0 0-.422 1.028c-.082.38-.123.785-.123 1.213Zm6.161-.897-1.09.334a4.794 4.794 0 0 1 .255-1.503c.17-.48.413-.908.73-1.283.322-.375.718-.67 1.186-.888.469-.222 1.005-.333 1.609-.333.51 0 .961.067 1.353.202.399.134.733.342 1.002.624a2.6 2.6 0 0 1 .624 1.063c.141.434.211.95.211 1.547V22h-1.635v-6.267c0-.533-.085-.946-.254-1.239a1.332 1.332 0 0 0-.704-.624c-.298-.123-.656-.184-1.072-.184-.357 0-.674.061-.949.184a1.96 1.96 0 0 0-.694.51c-.188.21-.331.454-.431.73a2.702 2.702 0 0 0-.141.878Zm10.451 5.028 2.645-8.526h1.74l-3.814 10.978a5.991 5.991 0 0 1-.352.756c-.14.275-.322.536-.545.782a2.588 2.588 0 0 1-.808.598c-.311.158-.683.237-1.116.237-.129 0-.293-.018-.493-.053a4.827 4.827 0 0 1-.422-.088l-.008-1.318c.047.006.12.012.219.017.106.012.179.018.22.018.369 0 .683-.05.941-.15.257-.093.474-.254.65-.483.182-.223.337-.53.466-.923l.677-1.845Zm-1.943-8.526 2.47 7.383.422 1.714-1.169.598-3.498-9.695h1.775ZM129.48 8.5V22h-1.634V8.5h1.634Zm3.815 3.99V22h-1.635v-9.51h1.635Zm-1.758-2.522a.98.98 0 0 1 .237-.668c.164-.182.405-.273.721-.273.311 0 .548.091.712.273a.94.94 0 0 1 .255.668.92.92 0 0 1-.255.65c-.164.176-.401.264-.712.264-.316 0-.557-.088-.721-.264a.958.958 0 0 1-.237-.65Zm9.343 9.51c0-.235-.053-.452-.158-.65-.1-.206-.308-.39-.624-.555-.311-.17-.78-.316-1.407-.439a11.16 11.16 0 0 1-1.432-.395 4.347 4.347 0 0 1-1.081-.554 2.32 2.32 0 0 1-.677-.765 2.134 2.134 0 0 1-.237-1.028c0-.375.082-.73.246-1.064.17-.334.407-.63.712-.887a3.45 3.45 0 0 1 1.116-.607c.433-.146.917-.22 1.45-.22.762 0 1.412.135 1.951.405.539.27.952.63 1.24 1.08.287.446.43.941.43 1.486h-1.626c0-.264-.079-.518-.237-.764a1.748 1.748 0 0 0-.677-.625c-.293-.164-.653-.246-1.081-.246-.451 0-.817.07-1.099.211-.275.135-.477.308-.606.519a1.306 1.306 0 0 0-.097 1.143c.065.134.176.26.334.377.159.112.381.217.668.317.287.1.654.199 1.099.299.779.175 1.421.386 1.925.632.504.247.879.548 1.125.906.246.357.369.79.369 1.3a2.536 2.536 0 0 1-1.011 2.04 3.72 3.72 0 0 1-1.16.58 5.179 5.179 0 0 1-1.503.202c-.838 0-1.547-.15-2.127-.448-.58-.3-1.019-.686-1.318-1.16a2.775 2.775 0 0 1-.449-1.504h1.635c.024.446.153.8.387 1.064.234.258.521.442.861.554.34.105.677.158 1.011.158.445 0 .817-.059 1.116-.176.305-.117.536-.278.695-.483.158-.205.237-.44.237-.704Zm7.181-6.988v1.248h-5.142V12.49h5.142Zm-3.402-2.311h1.626v9.466c0 .322.05.565.15.729a.711.711 0 0 0 .386.325 1.6 1.6 0 0 0 .51.08c.135 0 .275-.012.422-.036.152-.03.267-.053.343-.07l.008 1.327a3.76 3.76 0 0 1-.509.114 3.876 3.876 0 0 1-.747.062 2.55 2.55 0 0 1-1.099-.237c-.334-.159-.601-.422-.8-.791-.193-.375-.29-.88-.29-1.512v-9.457Z"/>
  <g clip-path="url(#a)">
    <path fill="#70778B" fill-rule="evenodd" d="m193.54 20.91-7.13-4.167a3.3 3.3 0 0 0 .09-.703 3.3 3.3 0 0 0-.09-.703l7.05-4.126a2.98 2.98 0 0 0 2.04.813c1.66 0 3-1.345 3-3.012a3.002 3.002 0 0 0-3-3.012c-1.66 0-3 1.345-3 3.012 0 .241.04.472.09.703l-7.05 4.126a2.98 2.98 0 0 0-2.04-.813c-1.66 0-3 1.345-3 3.012a3.002 3.002 0 0 0 3 3.012c.79 0 1.5-.311 2.04-.813l7.12 4.177c-.05.21-.08.431-.08.652A2.93 2.93 0 0 0 195.5 26a2.93 2.93 0 0 0 2.92-2.932 2.93 2.93 0 0 0-2.92-2.931c-.76 0-1.44.3-1.96.773Z" clip-rule="evenodd"/>
  </g>
  <path fill="#3A4562" d="M221.806 18.766c0-.3-.047-.563-.141-.791a1.504 1.504 0 0 0-.475-.633c-.222-.188-.533-.366-.931-.536-.393-.17-.891-.343-1.494-.519a13.75 13.75 0 0 1-1.714-.624 5.981 5.981 0 0 1-1.31-.8 3.168 3.168 0 0 1-.835-1.028 2.933 2.933 0 0 1-.29-1.327 3.115 3.115 0 0 1 1.187-2.479 4.245 4.245 0 0 1 1.38-.738 5.677 5.677 0 0 1 1.784-.264c.961 0 1.775.185 2.443.554.674.363 1.187.84 1.538 1.433a3.59 3.59 0 0 1 .528 1.88h-1.688c0-.48-.102-.905-.308-1.274a2.117 2.117 0 0 0-.931-.879c-.416-.217-.944-.325-1.582-.325-.604 0-1.102.09-1.494.272-.393.182-.686.428-.879.739a2.01 2.01 0 0 0-.282 1.063c0 .27.056.516.167.739.118.216.296.419.537.606.246.188.556.36.931.518.381.159.835.311 1.363.457.726.206 1.353.434 1.88.686.528.252.961.536 1.301.853.346.31.601.665.765 1.063.17.393.255.838.255 1.336 0 .521-.106.993-.317 1.415a3.072 3.072 0 0 1-.905 1.081 4.39 4.39 0 0 1-1.415.695 6.549 6.549 0 0 1-1.828.237 6.333 6.333 0 0 1-1.749-.246 5.223 5.223 0 0 1-1.556-.739 3.863 3.863 0 0 1-1.116-1.212c-.275-.487-.413-1.05-.413-1.688h1.687c0 .44.085.817.255 1.134.17.31.402.568.695.773.298.205.635.358 1.01.457.381.094.777.14 1.187.14.592 0 1.093-.081 1.503-.245.41-.164.721-.399.931-.703.217-.305.326-.665.326-1.081ZM226.49 8.5V22h-1.626V8.5h1.626Zm-.386 8.385-.677-.027a5.71 5.71 0 0 1 .29-1.801c.187-.557.451-1.04.791-1.45a3.525 3.525 0 0 1 2.786-1.292c.469 0 .891.064 1.266.193.375.123.694.322.958.598.269.275.474.632.615 1.072.14.433.211.964.211 1.59V22h-1.635v-6.249c0-.498-.073-.896-.22-1.195a1.349 1.349 0 0 0-.641-.66c-.282-.14-.627-.21-1.037-.21-.405 0-.774.085-1.108.254-.328.17-.612.405-.852.704a3.529 3.529 0 0 0-.554 1.028 3.75 3.75 0 0 0-.193 1.213Zm13.719 3.489v-4.895c0-.375-.076-.7-.228-.976a1.498 1.498 0 0 0-.668-.65c-.299-.153-.668-.229-1.108-.229-.41 0-.77.07-1.081.211-.304.14-.545.325-.72.554a1.21 1.21 0 0 0-.255.738h-1.626c0-.34.088-.677.263-1.01.176-.335.428-.637.756-.906a3.783 3.783 0 0 1 1.196-.65c.468-.165.99-.246 1.564-.246.691 0 1.301.117 1.828.351a2.74 2.74 0 0 1 1.248 1.063c.305.47.457 1.058.457 1.767v4.43c0 .316.027.653.079 1.01.059.358.144.666.255.923V22h-1.696a3.001 3.001 0 0 1-.193-.747 6.013 6.013 0 0 1-.071-.879Zm.281-4.14.018 1.143h-1.643c-.463 0-.876.038-1.24.114a2.84 2.84 0 0 0-.914.325 1.546 1.546 0 0 0-.562.554 1.468 1.468 0 0 0-.194.765c0 .299.068.571.202.817.135.246.337.442.607.589.275.14.612.211 1.011.211.498 0 .937-.105 1.318-.316.381-.211.683-.47.905-.774.229-.305.352-.6.369-.888l.695.783c-.041.246-.153.518-.334.817a3.938 3.938 0 0 1-1.802 1.538 3.49 3.49 0 0 1-1.389.264c-.644 0-1.21-.126-1.696-.378a2.907 2.907 0 0 1-1.125-1.01 2.672 2.672 0 0 1-.395-1.433c0-.51.099-.959.298-1.345.2-.393.487-.718.862-.976a4.093 4.093 0 0 1 1.353-.598 7.147 7.147 0 0 1 1.767-.202h1.889Zm4.966-2.25V22h-1.626v-9.51h1.582l.044 1.494Zm2.971-1.546-.009 1.511a2.338 2.338 0 0 0-.386-.053 4.133 4.133 0 0 0-.405-.017c-.375 0-.706.059-.993.176-.287.117-.53.28-.729.492-.2.21-.358.463-.475.756a3.64 3.64 0 0 0-.22.949l-.457.264c0-.575.056-1.114.167-1.618.117-.503.296-.949.536-1.335.241-.393.545-.698.914-.915.375-.222.821-.333 1.336-.333.118 0 .252.014.405.043.152.024.257.05.316.08Zm4.711 9.738a4.678 4.678 0 0 1-1.802-.334 4.09 4.09 0 0 1-1.38-.958 4.259 4.259 0 0 1-.879-1.46 5.353 5.353 0 0 1-.307-1.845v-.369c0-.774.114-1.462.343-2.066a4.62 4.62 0 0 1 .931-1.546 3.996 3.996 0 0 1 1.336-.958 3.84 3.84 0 0 1 1.547-.325c.68 0 1.266.117 1.758.351a3.21 3.21 0 0 1 1.222.984c.316.416.55.909.703 1.477.152.563.228 1.178.228 1.846v.73h-7.101v-1.328h5.475v-.123a4.023 4.023 0 0 0-.264-1.23 2.202 2.202 0 0 0-.703-.985c-.322-.258-.761-.387-1.318-.387a2.217 2.217 0 0 0-1.819.923 3.444 3.444 0 0 0-.519 1.117 5.66 5.66 0 0 0-.184 1.52v.37c0 .45.061.875.184 1.274.129.392.314.738.554 1.037.246.299.542.533.888.703.351.17.75.255 1.195.255.574 0 1.06-.118 1.459-.352a3.621 3.621 0 0 0 1.046-.94l.984.782c-.205.31-.466.606-.782.888a3.74 3.74 0 0 1-1.169.685c-.457.176-.999.264-1.626.264Z"/>
  <defs>
    <clipPath id="a">
      <path fill="#fff" d="M0 0h18v20H0z" transform="translate(180.5 6)"/>
    </clipPath>
  </defs>
</svg>
