<svg xmlns="http://www.w3.org/2000/svg" width="213" height="50" fill="none" viewBox="0 0 213 50">
  <g clip-path="url(#a)">
    <path fill="#384564" fill-rule="evenodd" d="M0 8a8 8 0 0 1 8-8h197a8 8 0 0 1 8 8v34a8 8 0 0 1-8 8H8a8 8 0 0 1-8-8V8Z" clip-rule="evenodd" opacity=".138"/>
    <path fill="#3A4562" d="m59.231 30-1.956-3.144c.96-.156 1.897-.924 1.897-2.352 0-1.476-1.032-2.508-2.616-2.508h-3.517V30h1.404v-2.988h1.393L57.612 30h1.62Zm-2.867-4.224h-1.92v-2.544h1.92c.792 0 1.367.504 1.367 1.272s-.575 1.272-1.367 1.272ZM66.059 30v-1.236h-4.08v-2.22h3.996v-1.236h-3.996v-2.076h4.08v-1.236h-5.484V30h5.484Zm4.753 0v-6.768h2.424v-1.236h-6.252v1.236h2.424V30h1.404Zm7.082.144c2.316 0 3.456-1.32 3.456-3.312v-4.836h-1.416v4.8c0 1.272-.708 2.1-2.04 2.1-1.344 0-2.052-.828-2.052-2.1v-4.8h-1.416v4.848c0 1.968 1.14 3.3 3.468 3.3ZM89.244 30l-1.957-3.144c.96-.156 1.896-.924 1.896-2.352 0-1.476-1.032-2.508-2.616-2.508h-3.516V30h1.404v-2.988h1.392L87.623 30h1.62Zm-2.869-4.224h-1.92v-2.544h1.92c.792 0 1.368.504 1.368 1.272s-.576 1.272-1.368 1.272ZM97.522 30v-8.004h-1.404v5.556l-4.092-5.556h-1.44V30h1.404v-5.712L96.166 30h1.356Zm8.095 0v-6.768h2.424v-1.236h-6.252v1.236h2.424V30h1.404Zm7.041.144c2.4 0 4.092-1.752 4.092-4.14s-1.692-4.14-4.092-4.14c-2.4 0-4.092 1.752-4.092 4.14s1.692 4.14 4.092 4.14Zm0-1.248c-1.62 0-2.652-1.248-2.652-2.892 0-1.656 1.032-2.892 2.652-2.892 1.608 0 2.652 1.236 2.652 2.892 0 1.644-1.044 2.892-2.652 2.892Zm9.894 1.248c1.548 0 2.7-.852 2.7-2.676v-5.472h-1.404v5.448c0 .876-.54 1.452-1.404 1.452-.612 0-1.044-.312-1.368-.66l-.648 1.068c.564.6 1.296.84 2.124.84Zm8.141 0c2.4 0 4.092-1.752 4.092-4.14s-1.692-4.14-4.092-4.14c-2.4 0-4.092 1.752-4.092 4.14s1.692 4.14 4.092 4.14Zm0-1.248c-1.62 0-2.652-1.248-2.652-2.892 0-1.656 1.032-2.892 2.652-2.892 1.608 0 2.652 1.236 2.652 2.892 0 1.644-1.044 2.892-2.652 2.892ZM140.181 30c1.5 0 2.328-.924 2.328-2.16 0-.984-.696-1.836-1.548-1.968.744-.156 1.392-.828 1.392-1.836 0-1.128-.816-2.04-2.28-2.04h-3.936V30h4.044Zm-.396-4.692h-2.244v-2.076h2.244c.72 0 1.128.444 1.128 1.044 0 .6-.408 1.032-1.128 1.032Zm.06 3.456h-2.304v-2.22h2.304c.804 0 1.224.504 1.224 1.104 0 .696-.456 1.116-1.224 1.116ZM151.044 30c1.5 0 2.328-.924 2.328-2.16 0-.984-.696-1.836-1.548-1.968.744-.156 1.392-.828 1.392-1.836 0-1.128-.816-2.04-2.28-2.04H147V30h4.044Zm-.396-4.692h-2.244v-2.076h2.244c.72 0 1.128.444 1.128 1.044 0 .6-.408 1.032-1.128 1.032Zm.06 3.456h-2.304v-2.22h2.304c.804 0 1.224.504 1.224 1.104 0 .696-.456 1.116-1.224 1.116Zm7.806 1.38c2.4 0 4.092-1.752 4.092-4.14s-1.692-4.14-4.092-4.14c-2.4 0-4.092 1.752-4.092 4.14s1.692 4.14 4.092 4.14Zm0-1.248c-1.62 0-2.652-1.248-2.652-2.892 0-1.656 1.032-2.892 2.652-2.892 1.608 0 2.652 1.236 2.652 2.892 0 1.644-1.044 2.892-2.652 2.892ZM170.736 30l-3.144-8.004h-1.752L162.696 30h1.596l.588-1.536h3.672L169.14 30h1.596Zm-2.58-2.772h-2.88l1.44-3.816 1.44 3.816ZM177.802 30l-1.956-3.144c.96-.156 1.896-.924 1.896-2.352 0-1.476-1.032-2.508-2.616-2.508h-3.516V30h1.404v-2.988h1.392L176.182 30h1.62Zm-2.868-4.224h-1.92v-2.544h1.92c.792 0 1.368.504 1.368 1.272s-.576 1.272-1.368 1.272ZM182.121 30c2.496 0 4.188-1.644 4.188-3.996 0-2.352-1.692-4.008-4.188-4.008h-2.976V30h2.976Zm0-1.236h-1.572v-5.532h1.572c1.788 0 2.748 1.224 2.748 2.772 0 1.512-1.008 2.76-2.748 2.76Z"/>
    <path fill="#384564" fill-rule="evenodd" d="M32.66 16.401a1.33 1.33 0 0 1-.042 1.817l-6.246 6.48a.433.433 0 0 0 0 .6l6.25 6.48a1.33 1.33 0 0 1 .038 1.818 1.172 1.172 0 0 1-1.731.043l-7.538-7.672a1.385 1.385 0 0 1-.04-1.886l7.578-7.723a1.178 1.178 0 0 1 1.732.043Z" clip-rule="evenodd"/>
  </g>
  <defs>
    <clipPath id="a">
      <path fill="#fff" d="M0 0h213v50H0z"/>
    </clipPath>
  </defs>
</svg>
