<svg xmlns="http://www.w3.org/2000/svg" xmlns:xlink="http://www.w3.org/1999/xlink" width="402" height="436" fill="none" viewBox="0 0 402 436">
  <g clip-path="url(#a)">
    <g clip-path="url(#b)">
      <rect width="402" height="436" fill="#2A3047" rx="8"/>
      <g clip-path="url(#c)">
        <circle cx="59.5" cy="124.5" r="136.5" fill="#202336"/>
        <mask id="d" width="402" height="218" x="0" y="218" maskUnits="userSpaceOnUse" style="mask-type:alpha">
          <path fill="#fff" d="M0 218h402v210a8 8 0 0 1-8 8H8a8 8 0 0 1-8-8V218Z"/>
        </mask>
        <g mask="url(#d)">
          <path fill="url(#e)" d="M-20 96h584v728H-20z"/>
        </g>
      </g>
      <path fill="#D8D8D8" fill-rule="evenodd" d="M108 278.7c0-6.462-5.82-11.7-13-11.7s-13 5.238-13 11.7c0 4.116 3.957 11.695 11.87 22.737L95 303l1.676-2.328.559-.791C104.412 289.681 108 282.62 108 278.7Zm-19.5.822c0-3.458 2.91-6.261 6.5-6.261s6.5 2.803 6.5 6.261-2.91 6.261-6.5 6.261-6.5-2.803-6.5-6.261Z" clip-rule="evenodd"/>
      <path fill="#E8EBF3" d="M71.457 161.136v1.529h-8.771v-1.529h8.771Zm-3.568-3.736v9.317h-1.626V157.4h1.626Zm13.473 6.293v1.336h-9.246v-.958l5.73-8.868h1.328l-1.424 2.567-3.788 5.923h7.4Zm-1.784-8.49V168h-1.626v-12.797h1.626Zm5.071 5.599h1.16c.569 0 1.038-.094 1.407-.281a1.94 1.94 0 0 0 .835-.783c.187-.334.281-.709.281-1.125 0-.492-.082-.905-.246-1.239a1.648 1.648 0 0 0-.738-.756c-.329-.17-.745-.255-1.248-.255a2.6 2.6 0 0 0-1.213.273 1.991 1.991 0 0 0-.818.756c-.193.328-.29.714-.29 1.16h-1.626c0-.651.164-1.242.492-1.776a3.537 3.537 0 0 1 1.38-1.274c.598-.316 1.29-.475 2.075-.475.773 0 1.45.138 2.03.413.58.27 1.031.674 1.353 1.213.323.534.484 1.199.484 1.995 0 .323-.076.668-.229 1.038a3.064 3.064 0 0 1-.694 1.019c-.31.316-.715.577-1.213.782-.498.2-1.096.299-1.793.299H84.65v-.984Zm0 1.336v-.976h1.39c.814 0 1.487.097 2.02.29.534.194.953.451 1.257.774.311.322.528.676.65 1.063.13.381.194.762.194 1.143 0 .597-.102 1.128-.307 1.59A3.24 3.24 0 0 1 89 167.2a3.65 3.65 0 0 1-1.283.73 5.06 5.06 0 0 1-1.609.246 5.087 5.087 0 0 1-1.573-.238 4.065 4.065 0 0 1-1.292-.685 3.215 3.215 0 0 1-.879-1.116c-.21-.446-.316-.952-.316-1.521h1.626c0 .446.096.835.29 1.169.2.334.48.595.844.782.369.182.802.273 1.3.273s.926-.085 1.284-.255c.363-.176.641-.439.835-.791.199-.352.298-.794.298-1.327 0-.533-.11-.97-.334-1.31a1.959 1.959 0 0 0-.949-.764c-.404-.17-.882-.255-1.432-.255h-1.16Zm11.207.747v-.088c0-1.277.143-2.432.43-3.463.287-1.037.653-1.945 1.099-2.725.445-.779.914-1.423 1.406-1.933.492-.516.946-.888 1.362-1.116l.343 1.072c-.346.264-.697.627-1.055 1.09-.351.463-.676 1.031-.975 1.705-.293.674-.53 1.456-.712 2.346-.182.891-.273 1.893-.273 3.006v.123c0 1.114.091 2.119.273 3.015.181.891.419 1.676.712 2.355.299.68.624 1.257.975 1.732.358.48.709.861 1.055 1.142l-.343.985c-.416-.229-.87-.601-1.362-1.116-.492-.51-.96-1.155-1.406-1.934-.446-.773-.812-1.679-1.099-2.716-.287-1.037-.43-2.197-.43-3.48Zm13.526-2.303v1.951c0 1.049-.094 1.934-.281 2.655-.188.72-.457 1.3-.809 1.74a3.081 3.081 0 0 1-1.274.958c-.493.193-1.049.29-1.67.29-.493 0-.947-.062-1.363-.185a3.226 3.226 0 0 1-1.125-.589 3.552 3.552 0 0 1-.843-1.072c-.235-.439-.413-.973-.537-1.6-.123-.626-.184-1.359-.184-2.197v-1.951c0-1.049.094-1.928.281-2.637.194-.709.466-1.277.818-1.705a2.971 2.971 0 0 1 1.265-.931 4.7 4.7 0 0 1 1.67-.282c.498 0 .955.062 1.371.185.422.117.797.308 1.125.571.328.258.607.604.835 1.037.235.428.413.952.536 1.574.123.621.185 1.35.185 2.188Zm-1.635 2.215v-2.487c0-.575-.035-1.079-.105-1.512a4.807 4.807 0 0 0-.29-1.125 2.209 2.209 0 0 0-.493-.756 1.745 1.745 0 0 0-.676-.422 2.43 2.43 0 0 0-.853-.141c-.387 0-.729.074-1.028.22a1.847 1.847 0 0 0-.756.677c-.199.311-.352.718-.457 1.222-.106.504-.158 1.116-.158 1.837v2.487c0 .574.032 1.081.096 1.52.071.44.173.821.308 1.143.135.316.299.577.492.782.194.205.416.358.668.457.258.094.542.141.853.141.398 0 .747-.076 1.046-.229.298-.152.547-.389.747-.712.205-.328.357-.747.457-1.256.099-.516.149-1.131.149-1.846Zm8.508-7.664V168h-1.626v-10.837l-3.278 1.195v-1.467l4.649-1.758h.255Zm8.139 7.664v.088c0 1.283-.144 2.443-.431 3.48-.287 1.037-.653 1.943-1.099 2.716-.445.779-.914 1.424-1.406 1.934-.492.515-.946.887-1.362 1.116l-.343-.985c.346-.263.694-.632 1.046-1.107.351-.469.677-1.049.975-1.74.299-.686.539-1.477.721-2.373.182-.903.273-1.91.273-3.024v-.123c0-1.113-.097-2.118-.29-3.014-.194-.903-.446-1.697-.756-2.382-.305-.686-.633-1.263-.985-1.732-.345-.474-.674-.84-.984-1.098l.343-.993c.416.228.87.6 1.362 1.116.492.51.961 1.154 1.406 1.933.446.78.812 1.688 1.099 2.725.287 1.031.431 2.186.431 3.463Zm14.343.896v1.336h-9.246v-.958l5.731-8.868h1.327l-1.424 2.567-3.788 5.923h7.4Zm-1.784-8.49V168h-1.626v-12.797h1.626Zm10.732 5.379v1.951c0 1.049-.094 1.934-.282 2.655-.187.72-.457 1.3-.808 1.74a3.084 3.084 0 0 1-1.275.958c-.492.193-1.049.29-1.67.29-.492 0-.946-.062-1.362-.185a3.226 3.226 0 0 1-1.125-.589 3.57 3.57 0 0 1-.844-1.072c-.234-.439-.413-.973-.536-1.6-.123-.626-.184-1.359-.184-2.197v-1.951c0-1.049.093-1.928.281-2.637.193-.709.466-1.277.817-1.705a2.98 2.98 0 0 1 1.266-.931 4.7 4.7 0 0 1 1.67-.282c.498 0 .955.062 1.371.185.422.117.797.308 1.125.571.328.258.606.604.835 1.037.234.428.413.952.536 1.574.123.621.185 1.35.185 2.188Zm-1.635 2.215v-2.487c0-.575-.035-1.079-.106-1.512a4.71 4.71 0 0 0-.29-1.125 2.222 2.222 0 0 0-.492-.756 1.741 1.741 0 0 0-.677-.422 2.424 2.424 0 0 0-.852-.141c-.387 0-.73.074-1.029.22a1.85 1.85 0 0 0-.755.677c-.2.311-.352.718-.457 1.222-.106.504-.159 1.116-.159 1.837v2.487c0 .574.033 1.081.097 1.52.07.44.173.821.308 1.143.134.316.299.577.492.782.193.205.416.358.668.457.258.094.542.141.852.141.399 0 .747-.076 1.046-.229.299-.152.548-.389.747-.712.205-.328.358-.747.457-1.256.1-.516.15-1.131.15-1.846Zm11.812.896v1.336h-9.246v-.958l5.731-8.868h1.327l-1.424 2.567-3.788 5.923h7.4Zm-1.784-8.49V168h-1.626v-12.797h1.626Zm10.732 5.379v1.951c0 1.049-.094 1.934-.282 2.655-.187.72-.457 1.3-.808 1.74a3.084 3.084 0 0 1-1.275.958c-.492.193-1.049.29-1.67.29-.492 0-.946-.062-1.362-.185a3.226 3.226 0 0 1-1.125-.589 3.57 3.57 0 0 1-.844-1.072c-.234-.439-.413-.973-.536-1.6-.123-.626-.184-1.359-.184-2.197v-1.951c0-1.049.093-1.928.281-2.637.193-.709.466-1.277.817-1.705a2.98 2.98 0 0 1 1.266-.931 4.7 4.7 0 0 1 1.67-.282c.498 0 .955.062 1.371.185.422.117.797.308 1.125.571.328.258.606.604.835 1.037.234.428.413.952.536 1.574.123.621.185 1.35.185 2.188Zm-1.635 2.215v-2.487c0-.575-.035-1.079-.106-1.512a4.71 4.71 0 0 0-.29-1.125 2.222 2.222 0 0 0-.492-.756 1.741 1.741 0 0 0-.677-.422 2.424 2.424 0 0 0-.852-.141c-.387 0-.73.074-1.029.22a1.85 1.85 0 0 0-.755.677c-.2.311-.352.718-.457 1.222-.106.504-.159 1.116-.159 1.837v2.487c0 .574.033 1.081.097 1.52.07.44.173.821.308 1.143.134.316.299.577.492.782.193.205.416.358.668.457.258.094.542.141.852.141.399 0 .747-.076 1.046-.229.299-.152.548-.389.747-.712.205-.328.358-.747.457-1.256.1-.516.15-1.131.15-1.846Zm11.197-2.215v1.951c0 1.049-.094 1.934-.281 2.655-.188.72-.457 1.3-.809 1.74a3.075 3.075 0 0 1-1.274.958c-.492.193-1.049.29-1.67.29-.492 0-.946-.062-1.362-.185a3.226 3.226 0 0 1-1.125-.589 3.54 3.54 0 0 1-.844-1.072c-.235-.439-.413-.973-.536-1.6-.123-.626-.185-1.359-.185-2.197v-1.951c0-1.049.094-1.928.281-2.637.194-.709.466-1.277.818-1.705a2.971 2.971 0 0 1 1.265-.931 4.7 4.7 0 0 1 1.67-.282c.498 0 .955.062 1.371.185.422.117.797.308 1.125.571.329.258.607.604.835 1.037.235.428.413.952.537 1.574.123.621.184 1.35.184 2.188Zm-1.635 2.215v-2.487c0-.575-.035-1.079-.105-1.512a4.759 4.759 0 0 0-.29-1.125 2.222 2.222 0 0 0-.492-.756 1.748 1.748 0 0 0-.677-.422 2.426 2.426 0 0 0-.853-.141c-.386 0-.729.074-1.028.22a1.847 1.847 0 0 0-.756.677c-.199.311-.351.718-.457 1.222-.105.504-.158 1.116-.158 1.837v2.487c0 .574.032 1.081.097 1.52.07.44.172.821.307 1.143.135.316.299.577.492.782.194.205.416.358.668.457.258.094.542.141.853.141.398 0 .747-.076 1.046-.229.299-.152.548-.389.747-.712.205-.328.357-.747.457-1.256.1-.516.149-1.131.149-1.846Zm6.724-.905v1.336h-4.289v-1.336h4.289Zm6.196-6.759V168h-1.626v-10.837l-3.278 1.195v-1.467l4.649-1.758h.255Zm12.604 11.531V168h-8.376v-1.169l4.192-4.667c.516-.574.914-1.06 1.195-1.459.288-.404.487-.765.598-1.081.117-.322.176-.65.176-.984a2.45 2.45 0 0 0-.264-1.143 1.974 1.974 0 0 0-.756-.826c-.334-.205-.738-.308-1.213-.308-.568 0-1.042.112-1.423.334a2.057 2.057 0 0 0-.844.914c-.188.393-.281.844-.281 1.354h-1.626c0-.721.158-1.38.474-1.978a3.505 3.505 0 0 1 1.407-1.424c.621-.357 1.385-.536 2.293-.536.809 0 1.5.144 2.075.431.574.281 1.013.68 1.318 1.195.311.51.466 1.108.466 1.793 0 .375-.065.756-.193 1.143a5.807 5.807 0 0 1-.519 1.142 8.875 8.875 0 0 1-.765 1.125c-.287.37-.594.733-.923 1.09l-3.427 3.718h6.416Zm9.211-6.082v1.951c0 1.049-.094 1.934-.282 2.655-.187.72-.457 1.3-.808 1.74a3.084 3.084 0 0 1-1.275.958c-.492.193-1.048.29-1.669.29-.493 0-.947-.062-1.363-.185a3.226 3.226 0 0 1-1.125-.589 3.57 3.57 0 0 1-.844-1.072c-.234-.439-.413-.973-.536-1.6-.123-.626-.184-1.359-.184-2.197v-1.951c0-1.049.093-1.928.281-2.637.193-.709.466-1.277.817-1.705a2.98 2.98 0 0 1 1.266-.931 4.7 4.7 0 0 1 1.67-.282c.498 0 .955.062 1.371.185.422.117.797.308 1.125.571.328.258.606.604.835 1.037.234.428.413.952.536 1.574.123.621.185 1.35.185 2.188Zm-1.635 2.215v-2.487c0-.575-.035-1.079-.106-1.512a4.71 4.71 0 0 0-.29-1.125 2.222 2.222 0 0 0-.492-.756 1.741 1.741 0 0 0-.677-.422 2.42 2.42 0 0 0-.852-.141c-.387 0-.73.074-1.028.22a1.847 1.847 0 0 0-.756.677c-.199.311-.352.718-.457 1.222-.106.504-.158 1.116-.158 1.837v2.487c0 .574.032 1.081.096 1.52.071.44.173.821.308 1.143.135.316.299.577.492.782.193.205.416.358.668.457.258.094.542.141.853.141a2.26 2.26 0 0 0 1.045-.229c.299-.152.548-.389.747-.712.206-.328.358-.747.458-1.256.099-.516.149-1.131.149-1.846Zm4.781 3.841h.167c.938 0 1.699-.132 2.285-.396.586-.263 1.037-.618 1.354-1.063.316-.446.533-.947.65-1.503.117-.563.176-1.14.176-1.732v-1.96c0-.58-.067-1.095-.202-1.546a3.345 3.345 0 0 0-.545-1.134 2.431 2.431 0 0 0-.782-.695 1.936 1.936 0 0 0-.932-.237c-.375 0-.712.076-1.011.229a2.112 2.112 0 0 0-.747.624 2.99 2.99 0 0 0-.457.949 4.258 4.258 0 0 0-.158 1.186c0 .381.047.75.141 1.108.093.357.237.679.43.967.194.287.434.515.721.685.293.164.636.246 1.028.246.364 0 .703-.07 1.02-.211a2.947 2.947 0 0 0 1.45-1.441c.152-.317.24-.648.264-.993h.773c0 .486-.097.967-.29 1.441a4.39 4.39 0 0 1-.791 1.283 4.01 4.01 0 0 1-1.195.932 3.3 3.3 0 0 1-1.494.343c-.633 0-1.181-.123-1.644-.369a3.322 3.322 0 0 1-1.142-.985 4.51 4.51 0 0 1-.66-1.371 5.816 5.816 0 0 1-.211-1.547c0-.609.085-1.18.255-1.714a4.17 4.17 0 0 1 .756-1.406c.334-.41.747-.729 1.239-.958.498-.228 1.073-.343 1.723-.343.732 0 1.357.147 1.872.44.516.293.935.685 1.257 1.178.328.492.568 1.045.721 1.661.152.615.228 1.248.228 1.898v.589c0 .662-.044 1.336-.132 2.021a8.076 8.076 0 0 1-.483 1.952 5.136 5.136 0 0 1-1.028 1.67c-.452.486-1.04.873-1.767 1.16-.721.281-1.611.422-2.672.422h-.167v-1.38Zm15.979-6.056v1.951c0 1.049-.094 1.934-.282 2.655-.187.72-.457 1.3-.808 1.74a3.084 3.084 0 0 1-1.275.958c-.492.193-1.048.29-1.67.29-.492 0-.946-.062-1.362-.185a3.226 3.226 0 0 1-1.125-.589 3.57 3.57 0 0 1-.844-1.072c-.234-.439-.413-.973-.536-1.6-.123-.626-.184-1.359-.184-2.197v-1.951c0-1.049.093-1.928.281-2.637.193-.709.466-1.277.817-1.705a2.98 2.98 0 0 1 1.266-.931 4.7 4.7 0 0 1 1.67-.282c.498 0 .955.062 1.371.185.422.117.797.308 1.125.571.328.258.606.604.835 1.037.234.428.413.952.536 1.574.123.621.185 1.35.185 2.188Zm-1.635 2.215v-2.487c0-.575-.035-1.079-.106-1.512a4.71 4.71 0 0 0-.29-1.125 2.207 2.207 0 0 0-.492-.756 1.741 1.741 0 0 0-.677-.422 2.42 2.42 0 0 0-.852-.141c-.387 0-.73.074-1.028.22a1.847 1.847 0 0 0-.756.677c-.199.311-.352.718-.457 1.222-.106.504-.158 1.116-.158 1.837v2.487c0 .574.032 1.081.096 1.52.07.44.173.821.308 1.143.135.316.299.577.492.782.193.205.416.358.668.457.258.094.542.141.852.141.399 0 .748-.076 1.046-.229.299-.152.548-.389.747-.712.206-.328.358-.747.457-1.256.1-.516.15-1.131.15-1.846Zm4.816 3.269v1.31c0 .533-.134 1.096-.404 1.687a4.058 4.058 0 0 1-1.134 1.495l-.923-.642c.188-.258.346-.521.475-.791.129-.264.226-.539.29-.826a3.7 3.7 0 0 0 .106-.897v-1.336h1.59ZM64.865 184.318v11.338h-1.634V182.49h1.494l.14 1.828Zm6.407 2.848v.185c0 .691-.082 1.333-.246 1.924a4.74 4.74 0 0 1-.72 1.53c-.31.433-.695.77-1.152 1.01-.457.241-.981.361-1.573.361-.603 0-1.137-.1-1.6-.299a3.152 3.152 0 0 1-1.177-.87 4.446 4.446 0 0 1-.774-1.371 7.934 7.934 0 0 1-.386-1.802v-.984a8.27 8.27 0 0 1 .395-1.89 4.708 4.708 0 0 1 .765-1.424 3.14 3.14 0 0 1 1.169-.905c.457-.211.984-.317 1.582-.317.597 0 1.128.118 1.59.352a3.22 3.22 0 0 1 1.17.984c.316.428.553.941.711 1.538.164.592.246 1.251.246 1.978Zm-1.634.185v-.185c0-.475-.05-.92-.15-1.336a3.369 3.369 0 0 0-.466-1.107 2.208 2.208 0 0 0-.79-.756c-.323-.188-.707-.281-1.152-.281-.41 0-.767.07-1.072.21a2.328 2.328 0 0 0-.765.572 3.033 3.033 0 0 0-.518.808 4.56 4.56 0 0 0-.29.932v2.276c.117.411.28.797.492 1.161.21.357.492.647.843.87.352.216.794.325 1.328.325.44 0 .817-.091 1.133-.273.323-.187.586-.442.791-.764.211-.323.367-.692.466-1.108.1-.422.15-.87.15-1.344Zm2.715 0v-.203c0-.685.1-1.321.3-1.907a4.544 4.544 0 0 1 .86-1.538c.376-.439.83-.779 1.363-1.019a4.23 4.23 0 0 1 1.793-.37c.668 0 1.269.124 1.802.37.539.24.996.58 1.37 1.019.382.434.672.946.87 1.538.2.586.3 1.222.3 1.907v.203c0 .685-.1 1.321-.3 1.907a4.528 4.528 0 0 1-.87 1.538 3.979 3.979 0 0 1-1.361 1.019c-.528.241-1.126.361-1.794.361-.667 0-1.268-.12-1.801-.361a4.082 4.082 0 0 1-1.371-1.019 4.652 4.652 0 0 1-.862-1.538 5.89 5.89 0 0 1-.299-1.907Zm1.627-.203v.203c0 .474.055.922.166 1.344.112.416.279.785.501 1.108.229.322.513.577.853.764.34.182.735.273 1.186.273.446 0 .835-.091 1.17-.273a2.45 2.45 0 0 0 .843-.764 3.55 3.55 0 0 0 .501-1.108 5.01 5.01 0 0 0 .176-1.344v-.203c0-.468-.059-.911-.176-1.327a3.412 3.412 0 0 0-.51-1.116 2.417 2.417 0 0 0-.843-.773c-.334-.188-.727-.282-1.178-.282-.445 0-.838.094-1.178.282a2.523 2.523 0 0 0-.844.773c-.222.322-.39.694-.5 1.116a5.12 5.12 0 0 0-.168 1.327Zm14.044 2.33c0-.235-.052-.452-.158-.651-.1-.205-.307-.389-.624-.554-.31-.169-.78-.316-1.406-.439a10.985 10.985 0 0 1-1.433-.396 4.325 4.325 0 0 1-1.08-.553 2.325 2.325 0 0 1-.677-.765 2.132 2.132 0 0 1-.238-1.028c0-.375.082-.73.246-1.064.17-.334.407-.63.712-.887a3.47 3.47 0 0 1 1.116-.607c.434-.146.917-.22 1.45-.22.762 0 1.413.135 1.952.405.539.269.952.63 1.239 1.081.287.445.43.94.43 1.485h-1.625c0-.264-.08-.518-.238-.764a1.76 1.76 0 0 0-.676-.625c-.293-.164-.654-.246-1.081-.246-.452 0-.818.071-1.099.211-.275.135-.478.308-.606.519a1.305 1.305 0 0 0-.097 1.142c.064.135.176.261.334.378.158.112.38.217.668.317.287.099.653.199 1.098.299.78.175 1.421.386 1.925.632.504.247.88.548 1.125.906.246.357.37.791.37 1.3a2.532 2.532 0 0 1-1.01 2.04 3.721 3.721 0 0 1-1.162.58 5.209 5.209 0 0 1-1.502.202c-.838 0-1.547-.15-2.127-.448-.58-.299-1.02-.686-1.319-1.161a2.773 2.773 0 0 1-.448-1.503h1.635c.023.446.152.8.386 1.064.235.258.522.442.862.554.34.105.677.158 1.01.158.446 0 .818-.059 1.117-.176.304-.117.536-.278.694-.483.158-.205.237-.44.237-.703Zm7.181-6.988v1.248h-5.141v-1.248h5.141Zm-3.401-2.311h1.626v9.466c0 .322.05.565.15.729a.713.713 0 0 0 .386.325c.158.053.328.079.51.079.134 0 .275-.011.421-.035.153-.029.267-.053.343-.07l.01 1.327a3.784 3.784 0 0 1-.51.114 3.874 3.874 0 0 1-.747.062c-.398 0-.764-.079-1.098-.238-.334-.158-.601-.421-.8-.791-.194-.375-.29-.878-.29-1.511v-9.457ZM103.405 192v1.336h-8.06V192h8.06Zm6.311-1.626v-4.895c0-.375-.076-.701-.229-.976a1.491 1.491 0 0 0-.668-.65c-.298-.153-.668-.229-1.107-.229-.41 0-.771.07-1.081.211a1.882 1.882 0 0 0-.721.554 1.21 1.21 0 0 0-.255.738h-1.626c0-.34.088-.677.264-1.011.176-.334.428-.636.756-.905a3.779 3.779 0 0 1 1.195-.65c.469-.165.99-.247 1.565-.247.691 0 1.3.118 1.828.352.533.234.949.589 1.248 1.063.304.469.457 1.058.457 1.767v4.43c0 .316.026.653.079 1.011.058.357.143.665.255.922V192h-1.697a3.058 3.058 0 0 1-.193-.747 5.997 5.997 0 0 1-.07-.879Zm.281-4.14.018 1.143h-1.644a6.08 6.08 0 0 0-1.239.114 2.864 2.864 0 0 0-.914.325 1.55 1.55 0 0 0-.563.554 1.469 1.469 0 0 0-.193.765c0 .299.067.571.202.817s.337.443.607.589c.275.141.612.211 1.01.211a2.69 2.69 0 0 0 1.319-.316c.38-.211.682-.469.905-.774.228-.305.351-.6.369-.888l.694.783c-.041.246-.152.518-.334.817a3.937 3.937 0 0 1-1.801 1.538 3.493 3.493 0 0 1-1.389.264c-.645 0-1.21-.126-1.696-.378a2.893 2.893 0 0 1-1.125-1.011 2.673 2.673 0 0 1-.396-1.433c0-.509.1-.958.299-1.344.199-.393.486-.718.861-.976a4.086 4.086 0 0 1 1.354-.597 7.123 7.123 0 0 1 1.766-.203h1.89Zm4.975-7.734V192h-1.635v-13.5h1.635Zm5.809 3.99-4.148 4.439-2.321 2.408-.131-1.732 1.661-1.986 2.953-3.129h1.986Zm-1.485 9.51-3.393-4.535.844-1.45 4.465 5.985h-1.916Zm4.227-13.5V192h-1.626v-13.5h1.626Zm-.386 8.385-.677-.027c.006-.65.102-1.251.29-1.801.188-.557.451-1.04.791-1.451a3.529 3.529 0 0 1 2.786-1.292c.469 0 .891.065 1.266.194.375.123.694.322.958.597.269.276.474.633.615 1.073.141.433.211.964.211 1.591V192h-1.635v-6.249c0-.498-.073-.897-.22-1.195a1.35 1.35 0 0 0-.641-.66c-.281-.14-.627-.21-1.037-.21-.405 0-.774.085-1.108.254-.328.17-.612.405-.852.704a3.513 3.513 0 0 0-.554 1.028 3.755 3.755 0 0 0-.193 1.213ZM138.104 192v1.336h-8.059V192h8.059Zm6.698-1.846V178.5h1.635V192h-1.495l-.14-1.846Zm-6.399-2.803v-.185c0-.727.088-1.386.264-1.978.182-.597.437-1.11.765-1.538a3.47 3.47 0 0 1 1.186-.984 3.382 3.382 0 0 1 1.547-.352c.598 0 1.119.106 1.564.317.452.205.833.507 1.143.905.316.393.566.867.747 1.424.182.557.308 1.186.378 1.89v.808a8.239 8.239 0 0 1-.378 1.881 4.434 4.434 0 0 1-.747 1.424c-.31.392-.691.694-1.143.905-.451.205-.978.308-1.582.308-.556 0-1.066-.12-1.529-.361a3.61 3.61 0 0 1-1.186-1.01 4.945 4.945 0 0 1-.765-1.53 6.718 6.718 0 0 1-.264-1.924Zm1.635-.185v.185c0 .474.047.92.141 1.336.099.416.252.782.457 1.098.205.317.466.566.782.747.316.176.694.264 1.134.264.539 0 .981-.114 1.327-.343.351-.228.633-.53.844-.905.211-.375.375-.782.492-1.222v-2.118a4.672 4.672 0 0 0-.308-.932 2.872 2.872 0 0 0-.51-.808 2.207 2.207 0 0 0-.764-.572c-.299-.14-.654-.21-1.064-.21-.445 0-.829.093-1.151.281a2.233 2.233 0 0 0-.782.756 3.475 3.475 0 0 0-.457 1.107 6.05 6.05 0 0 0-.141 1.336Zm10.134-4.676V192h-1.635v-9.51h1.635Zm-1.758-2.522a.98.98 0 0 1 .237-.668c.164-.182.405-.273.721-.273.311 0 .548.091.712.273a.94.94 0 0 1 .255.668.917.917 0 0 1-.255.65c-.164.176-.401.264-.712.264-.316 0-.557-.088-.721-.264a.956.956 0 0 1-.237-.65Zm10.89 10.696V192h-6.917v-1.336h6.917Zm-.255-7.022L152.756 192h-.993v-1.195l6.249-8.315h1.037v1.152Zm-.721-1.152v1.345h-6.495v-1.345h6.495Zm16.277 5.089a7.807 7.807 0 0 1-.246 1.626 5.318 5.318 0 0 1-.632 1.485 3.31 3.31 0 0 1-1.099 1.09c-.445.27-.984.405-1.617.405-.405 0-.759-.071-1.064-.211a1.957 1.957 0 0 1-.738-.624 2.58 2.58 0 0 1-.396-.976 4.548 4.548 0 0 1-.035-1.274l.449-4.87h1.292l-.449 4.87c-.035.427-.026.776.027 1.046.058.269.146.477.263.624.118.14.249.237.396.29.152.052.299.079.439.079.352 0 .665-.091.941-.273.275-.187.507-.442.694-.764.193-.329.343-.706.448-1.134a7.36 7.36 0 0 0 .194-1.389c.041-.873 0-1.676-.123-2.408a6.644 6.644 0 0 0-.607-1.951 4.51 4.51 0 0 0-1.107-1.442 4.705 4.705 0 0 0-1.635-.896c-.633-.205-1.356-.308-2.171-.308-.738 0-1.421.114-2.048.343a5.39 5.39 0 0 0-1.678.967 6.207 6.207 0 0 0-1.275 1.52 8.16 8.16 0 0 0-.835 2.004 10.876 10.876 0 0 0-.351 2.391c-.041.879.005 1.687.14 2.426.135.732.352 1.385.651 1.96.304.58.688 1.069 1.151 1.467a4.68 4.68 0 0 0 1.608.914c.61.211 1.289.317 2.039.317.516 0 1.038-.062 1.565-.185.533-.123.978-.29 1.336-.501l.334 1.002c-.41.264-.923.46-1.538.589a8.38 8.38 0 0 1-1.732.193c-.89 0-1.705-.123-2.443-.369a5.938 5.938 0 0 1-1.951-1.063 5.921 5.921 0 0 1-1.406-1.696 7.777 7.777 0 0 1-.827-2.268 11.49 11.49 0 0 1-.202-2.786c.041-.961.185-1.866.431-2.716.252-.85.595-1.62 1.028-2.312a7.47 7.47 0 0 1 1.547-1.784 6.663 6.663 0 0 1 2.03-1.16 7.29 7.29 0 0 1 2.461-.404c.903 0 1.72.123 2.452.369a5.868 5.868 0 0 1 1.925 1.063 5.75 5.75 0 0 1 1.38 1.697c.363.668.627 1.424.791 2.267.17.844.234 1.764.193 2.76Zm-9.026.747c-.041.41-.041.777 0 1.099a2.4 2.4 0 0 0 .237.817c.118.223.27.393.457.51a1.338 1.338 0 0 0 1.213.044 2 2 0 0 0 .554-.404c.182-.182.352-.419.51-.712.158-.293.29-.645.395-1.055l.58.633c-.134.48-.31.902-.527 1.265a3.957 3.957 0 0 1-.712.915 2.955 2.955 0 0 1-.844.562 2.293 2.293 0 0 1-.896.185c-.428 0-.803-.091-1.125-.273a2.15 2.15 0 0 1-.782-.791c-.2-.34-.34-.744-.422-1.213a6.366 6.366 0 0 1-.035-1.582 7.897 7.897 0 0 1 .325-1.705 6.8 6.8 0 0 1 .606-1.397c.246-.411.522-.759.826-1.046.311-.287.639-.504.985-.651.346-.152.7-.228 1.063-.228.633 0 1.131.094 1.494.281.364.182.709.399 1.038.65l-.748.871a2.736 2.736 0 0 0-.667-.457 2.118 2.118 0 0 0-.976-.211c-.322 0-.624.082-.905.246-.282.164-.536.41-.765.738-.223.328-.41.735-.562 1.222a7.998 7.998 0 0 0-.317 1.687Zm16.225 2.048v-4.895c0-.375-.076-.701-.229-.976a1.491 1.491 0 0 0-.668-.65c-.299-.153-.668-.229-1.107-.229-.41 0-.771.07-1.081.211a1.882 1.882 0 0 0-.721.554 1.21 1.21 0 0 0-.255.738h-1.626c0-.34.088-.677.264-1.011.176-.334.428-.636.756-.905a3.779 3.779 0 0 1 1.195-.65c.469-.165.99-.247 1.564-.247.692 0 1.301.118 1.829.352.533.234.949.589 1.248 1.063.304.469.457 1.058.457 1.767v4.43c0 .316.026.653.079 1.011.058.357.143.665.255.922V192h-1.697a3.058 3.058 0 0 1-.193-.747 5.997 5.997 0 0 1-.07-.879Zm.281-4.14.018 1.143h-1.644a6.08 6.08 0 0 0-1.239.114 2.855 2.855 0 0 0-.914.325 1.55 1.55 0 0 0-.563.554 1.469 1.469 0 0 0-.193.765c0 .299.067.571.202.817s.337.443.606.589c.276.141.613.211 1.011.211a2.69 2.69 0 0 0 1.319-.316c.38-.211.682-.469.905-.774.228-.305.351-.6.369-.888l.694.783c-.041.246-.152.518-.334.817a3.937 3.937 0 0 1-1.801 1.538 3.496 3.496 0 0 1-1.389.264c-.645 0-1.21-.126-1.696-.378a2.893 2.893 0 0 1-1.125-1.011 2.673 2.673 0 0 1-.396-1.433c0-.509.1-.958.299-1.344.199-.393.486-.718.861-.976a4.086 4.086 0 0 1 1.354-.597 7.123 7.123 0 0 1 1.766-.203h1.89Zm4.975-7.734V192h-1.635v-13.5h1.635Zm5.809 3.99-4.148 4.439-2.321 2.408-.131-1.732 1.661-1.986 2.953-3.129h1.986Zm-1.485 9.51-3.393-4.535.844-1.45L193.3 192h-1.916Zm4.227-13.5V192h-1.626v-13.5h1.626Zm-.386 8.385-.677-.027c.006-.65.102-1.251.29-1.801.187-.557.451-1.04.791-1.451a3.529 3.529 0 0 1 2.786-1.292c.469 0 .891.065 1.266.194.375.123.694.322.958.597.269.276.474.633.615 1.073.141.433.211.964.211 1.591V192h-1.635v-6.249c0-.498-.073-.897-.22-1.195a1.35 1.35 0 0 0-.641-.66c-.281-.14-.627-.21-1.037-.21-.405 0-.774.085-1.108.254-.328.17-.612.405-.852.704a3.513 3.513 0 0 0-.554 1.028 3.755 3.755 0 0 0-.193 1.213Zm10.52 3.427 2.443-7.822h1.073l-.211 1.556-2.488 7.954h-1.045l.228-1.688Zm-1.643-7.822 2.083 7.91.149 1.6h-1.099l-2.759-9.51h1.626Zm7.497 7.849 1.986-7.849h1.617l-2.76 9.51h-1.089l.246-1.661Zm-2.101-7.849 2.391 7.691.272 1.819h-1.037l-2.558-7.972-.211-1.538h1.143Zm8.578 0V192h-1.635v-9.51h1.635Zm-1.758-2.522c0-.264.079-.487.238-.668.164-.182.404-.273.72-.273.311 0 .548.091.712.273a.94.94 0 0 1 .255.668.917.917 0 0 1-.255.65c-.164.176-.401.264-.712.264-.316 0-.556-.088-.72-.264a.952.952 0 0 1-.238-.65Zm7.752 12.208a4.686 4.686 0 0 1-1.801-.334 4.08 4.08 0 0 1-1.38-.958 4.261 4.261 0 0 1-.879-1.459 5.356 5.356 0 0 1-.308-1.846v-.369c0-.773.114-1.462.343-2.065.228-.61.539-1.125.932-1.547a3.97 3.97 0 0 1 1.335-.958 3.84 3.84 0 0 1 1.547-.326c.68 0 1.266.118 1.758.352.498.234.905.563 1.222.984.316.416.551.909.703 1.477a7.06 7.06 0 0 1 .229 1.846v.729h-7.102v-1.327h5.476v-.123a4.09 4.09 0 0 0-.264-1.231 2.22 2.22 0 0 0-.703-.984c-.323-.258-.762-.387-1.319-.387a2.2 2.2 0 0 0-1.019.238 2.172 2.172 0 0 0-.8.685 3.471 3.471 0 0 0-.519 1.116c-.123.44-.184.947-.184 1.521v.369c0 .451.061.876.184 1.275.129.392.314.738.554 1.037.246.298.542.533.888.703.351.17.75.255 1.195.255.574 0 1.061-.118 1.459-.352a3.61 3.61 0 0 0 1.046-.94l.984.782c-.205.31-.465.606-.782.888a3.735 3.735 0 0 1-1.169.685c-.457.176-.999.264-1.626.264Zm6.662-7.655V192h-1.626v-9.51h1.539l.087 2.031Zm-.386 2.364-.677-.027c.006-.65.102-1.251.29-1.801.187-.557.451-1.04.791-1.451a3.529 3.529 0 0 1 2.786-1.292c.469 0 .891.065 1.266.194.375.123.694.322.958.597.269.276.474.633.615 1.073.141.433.211.964.211 1.591V192h-1.635v-6.249c0-.498-.073-.897-.22-1.195a1.35 1.35 0 0 0-.641-.66c-.281-.14-.627-.21-1.037-.21-.405 0-.774.085-1.108.254-.328.17-.612.405-.852.704a3.513 3.513 0 0 0-.554 1.028 3.755 3.755 0 0 0-.193 1.213Zm8.174 4.254c0-.276.084-.507.254-.695.176-.193.428-.29.756-.29s.577.097.747.29a.977.977 0 0 1 .264.695.964.964 0 0 1-.264.685c-.17.188-.419.281-.747.281s-.58-.093-.756-.281a.982.982 0 0 1-.254-.685Zm9.764-.765v-4.895c0-.375-.076-.701-.228-.976a1.496 1.496 0 0 0-.668-.65c-.299-.153-.668-.229-1.108-.229-.41 0-.77.07-1.081.211a1.879 1.879 0 0 0-.72.554 1.21 1.21 0 0 0-.255.738h-1.626c0-.34.088-.677.263-1.011.176-.334.428-.636.756-.905a3.79 3.79 0 0 1 1.195-.65 4.693 4.693 0 0 1 1.565-.247c.691 0 1.301.118 1.828.352.533.234.949.589 1.248 1.063.305.469.457 1.058.457 1.767v4.43c0 .316.027.653.079 1.011.059.357.144.665.255.922V192h-1.696a3.054 3.054 0 0 1-.194-.747 6.138 6.138 0 0 1-.07-.879Zm.281-4.14.018 1.143h-1.644c-.462 0-.876.038-1.239.114a2.864 2.864 0 0 0-.914.325 1.548 1.548 0 0 0-.562.554 1.47 1.47 0 0 0-.194.765c0 .299.068.571.202.817.135.246.337.443.607.589.275.141.612.211 1.011.211.498 0 .937-.106 1.318-.316.381-.211.683-.469.905-.774.229-.305.352-.6.369-.888l.695.783c-.041.246-.153.518-.334.817a3.899 3.899 0 0 1-.73.861c-.299.27-.656.495-1.072.677a3.49 3.49 0 0 1-1.389.264c-.644 0-1.21-.126-1.696-.378a2.907 2.907 0 0 1-1.125-1.011 2.673 2.673 0 0 1-.395-1.433c0-.509.099-.958.298-1.344.2-.393.487-.718.862-.976a4.09 4.09 0 0 1 1.353-.597 7.13 7.13 0 0 1 1.767-.203h1.889Zm7.322-3.744v1.248h-5.142v-1.248h5.142Zm-3.402-2.311h1.626v9.466c0 .322.05.565.15.729a.713.713 0 0 0 .386.325c.159.053.329.079.51.079a2.6 2.6 0 0 0 .422-.035c.152-.029.267-.053.343-.07l.009 1.327a3.79 3.79 0 0 1-.51.114 3.872 3.872 0 0 1-.747.062c-.399 0-.765-.079-1.099-.238-.334-.158-.6-.421-.8-.791-.193-.375-.29-.878-.29-1.511v-9.457ZM72.942 130.628v4.684c-.158.235-.41.499-.755.792-.346.287-.824.539-1.433.755-.604.211-1.383.317-2.338.317a5.6 5.6 0 0 1-2.153-.405 4.844 4.844 0 0 1-1.697-1.195c-.474-.527-.843-1.166-1.107-1.916-.258-.756-.387-1.611-.387-2.566v-.993c0-.955.112-1.808.334-2.558.229-.75.563-1.386 1.002-1.907a4.2 4.2 0 0 1 1.617-1.196c.64-.275 1.371-.413 2.198-.413.978 0 1.796.17 2.452.51a3.788 3.788 0 0 1 1.547 1.389c.375.592.615 1.265.72 2.021h-1.696a3.549 3.549 0 0 0-.457-1.265 2.439 2.439 0 0 0-.958-.914c-.416-.235-.952-.352-1.608-.352-.592 0-1.105.108-1.538.325a2.836 2.836 0 0 0-1.073.932c-.28.404-.492.893-.632 1.468a8.518 8.518 0 0 0-.203 1.942v1.011c0 .738.085 1.397.255 1.977a4.5 4.5 0 0 0 .747 1.486 3.22 3.22 0 0 0 1.152.922c.45.211.949.317 1.494.317.603 0 1.093-.05 1.468-.15.375-.105.668-.228.879-.369a2.6 2.6 0 0 0 .483-.413v-2.865h-2.962v-1.371h4.65Zm7.823 4.175v-7.313h1.634V137h-1.555l-.08-2.197Zm.307-2.004.677-.018a7.24 7.24 0 0 1-.202 1.758c-.129.533-.34.996-.633 1.389-.293.392-.677.7-1.151.923-.475.216-1.052.325-1.732.325a3.87 3.87 0 0 1-1.274-.202 2.552 2.552 0 0 1-.985-.624c-.275-.282-.489-.648-.641-1.099-.147-.451-.22-.993-.22-1.626v-6.135h1.626v6.153c0 .427.047.782.14 1.063.1.275.232.495.396.659.17.158.358.27.563.334.21.065.428.097.65.097.692 0 1.24-.132 1.644-.396a2.25 2.25 0 0 0 .87-1.081c.181-.457.272-.964.272-1.52Zm-5.212-7.849c0-.263.082-.486.246-.668.165-.181.402-.272.712-.272.317 0 .557.091.721.272a.962.962 0 0 1 .246.668.94.94 0 0 1-.246.651c-.164.175-.404.263-.72.263-.311 0-.549-.088-.713-.263a.94.94 0 0 1-.246-.651Zm3.788.018a.98.98 0 0 1 .238-.668c.164-.182.404-.273.72-.273.311 0 .548.091.712.273a.94.94 0 0 1 .255.668.917.917 0 0 1-.255.65c-.164.176-.401.264-.712.264-.316 0-.556-.088-.72-.264a.955.955 0 0 1-.238-.65Zm6.293 4.016V137h-1.626v-9.51h1.582l.044 1.494Zm2.971-1.546-.009 1.511a2.398 2.398 0 0 0-.386-.053 4.363 4.363 0 0 0-.405-.017c-.375 0-.706.059-.993.176-.287.117-.53.281-.73.492a2.37 2.37 0 0 0-.474.756 3.63 3.63 0 0 0-.22.949l-.457.264c0-.575.056-1.114.167-1.618.117-.503.296-.949.536-1.336a2.63 2.63 0 0 1 .915-.914c.375-.222.82-.334 1.335-.334.118 0 .252.015.405.044.152.024.257.05.316.08Zm5.361.052v1.248h-5.141v-1.248h5.141Zm-3.4-2.311h1.625v9.466c0 .322.05.565.15.729.1.164.228.272.386.325.158.053.328.079.51.079.135 0 .275-.011.422-.035.152-.029.266-.053.343-.07l.008 1.327a3.782 3.782 0 0 1-.51.114 3.874 3.874 0 0 1-.746.062 2.53 2.53 0 0 1-1.1-.238c-.333-.158-.6-.421-.799-.791-.193-.375-.29-.878-.29-1.511v-9.457Zm8.691 11.997a4.69 4.69 0 0 1-1.801-.334 4.094 4.094 0 0 1-1.38-.958 4.266 4.266 0 0 1-.88-1.459 5.354 5.354 0 0 1-.307-1.846v-.369c0-.773.115-1.462.343-2.065.229-.61.54-1.125.932-1.547a3.979 3.979 0 0 1 1.336-.958 3.835 3.835 0 0 1 1.546-.326c.68 0 1.266.118 1.758.352.498.234.906.563 1.222.984.316.416.551.909.703 1.477a7.06 7.06 0 0 1 .229 1.846v.729h-7.102v-1.327h5.476v-.123a4.09 4.09 0 0 0-.264-1.231 2.213 2.213 0 0 0-.703-.984c-.322-.258-.762-.387-1.319-.387a2.204 2.204 0 0 0-1.819.923 3.458 3.458 0 0 0-.518 1.116c-.123.44-.185.947-.185 1.521v.369c0 .451.062.876.185 1.275.128.392.313.738.553 1.037.246.298.542.533.888.703.352.17.75.255 1.195.255.575 0 1.061-.118 1.459-.352a3.61 3.61 0 0 0 1.046-.94l.985.782c-.205.31-.466.606-.783.888a3.735 3.735 0 0 1-1.169.685c-.457.176-.999.264-1.626.264Zm6.803-13.676V137h-1.635v-13.5h1.635Zm11.118.633V137h-1.626v-10.837l-3.278 1.195v-1.467l4.649-1.758h.255Zm12.287 9.404c0 .779-.181 1.442-.544 1.986-.358.539-.844.95-1.459 1.231-.61.281-1.298.422-2.066.422-.767 0-1.459-.141-2.074-.422a3.409 3.409 0 0 1-1.459-1.231c-.358-.544-.536-1.207-.536-1.986 0-.51.096-.975.29-1.397.199-.428.477-.8.835-1.117a3.841 3.841 0 0 1 1.283-.729 4.904 4.904 0 0 1 1.644-.264c.785 0 1.485.153 2.1.457a3.574 3.574 0 0 1 1.45 1.24c.358.527.536 1.13.536 1.81Zm-1.634-.035c0-.475-.103-.894-.308-1.257a2.174 2.174 0 0 0-.861-.861c-.369-.205-.797-.308-1.283-.308-.498 0-.929.103-1.292.308a2.143 2.143 0 0 0-.835.861c-.2.363-.299.782-.299 1.257 0 .492.096.914.29 1.266.199.345.48.612.844.799.369.182.805.273 1.309.273.504 0 .938-.091 1.301-.273.363-.187.642-.454.835-.799.199-.352.299-.774.299-1.266Zm1.336-5.968c0 .621-.164 1.181-.493 1.679a3.418 3.418 0 0 1-1.344 1.178c-.569.287-1.213.43-1.934.43-.732 0-1.386-.143-1.96-.43a3.354 3.354 0 0 1-1.336-1.178 3.026 3.026 0 0 1-.483-1.679c0-.744.161-1.377.483-1.898a3.21 3.21 0 0 1 1.345-1.196c.568-.275 1.216-.413 1.942-.413.733 0 1.383.138 1.952.413a3.148 3.148 0 0 1 1.335 1.196c.329.521.493 1.154.493 1.898Zm-1.626.027c0-.428-.091-.806-.273-1.134a1.994 1.994 0 0 0-.756-.774 2.146 2.146 0 0 0-1.125-.29c-.427 0-.802.091-1.125.273a1.894 1.894 0 0 0-.747.756c-.176.328-.263.717-.263 1.169 0 .439.087.823.263 1.151.182.328.434.583.756.765.322.181.697.272 1.125.272.428 0 .8-.091 1.116-.272.323-.182.575-.437.756-.765.182-.328.273-.712.273-1.151Zm6.978 3.331v1.336h-4.289v-1.336h4.289Zm9.237 4.772V137h-8.375v-1.169l4.192-4.667c.516-.574.914-1.06 1.195-1.459.287-.404.487-.765.598-1.081.117-.322.176-.65.176-.984a2.45 2.45 0 0 0-.264-1.143 1.974 1.974 0 0 0-.756-.826c-.334-.205-.738-.308-1.213-.308-.568 0-1.043.112-1.424.334a2.055 2.055 0 0 0-.843.914c-.188.393-.282.844-.282 1.354h-1.626c0-.721.159-1.38.475-1.978a3.502 3.502 0 0 1 1.406-1.424c.621-.357 1.386-.536 2.294-.536.809 0 1.5.144 2.074.431.575.281 1.014.68 1.319 1.195.31.51.466 1.108.466 1.793 0 .375-.065.756-.194 1.143a5.801 5.801 0 0 1-.518 1.142 8.875 8.875 0 0 1-.765 1.125c-.287.37-.595.733-.923 1.09l-3.428 3.718h6.416Zm9.211-6.082v1.951c0 1.049-.093 1.934-.281 2.655-.187.72-.457 1.3-.808 1.74a3.084 3.084 0 0 1-1.275.958c-.492.193-1.049.29-1.67.29-.492 0-.946-.062-1.362-.185a3.226 3.226 0 0 1-1.125-.589 3.57 3.57 0 0 1-.844-1.072c-.234-.439-.413-.973-.536-1.6-.123-.626-.185-1.359-.185-2.197v-1.951c0-1.049.094-1.928.282-2.637.193-.709.466-1.277.817-1.705a2.98 2.98 0 0 1 1.266-.931 4.696 4.696 0 0 1 1.67-.282c.498 0 .955.062 1.371.185.422.117.797.308 1.125.571.328.258.606.604.835 1.037.234.428.413.952.536 1.574.123.621.184 1.35.184 2.188Zm-1.634 2.215v-2.487c0-.575-.036-1.079-.106-1.512a4.71 4.71 0 0 0-.29-1.125 2.222 2.222 0 0 0-.492-.756 1.741 1.741 0 0 0-.677-.422 2.424 2.424 0 0 0-.852-.141c-.387 0-.73.074-1.029.22a1.86 1.86 0 0 0-.756.677c-.199.311-.351.718-.457 1.222-.105.504-.158 1.116-.158 1.837v2.487c0 .574.032 1.081.097 1.52.07.44.173.821.308 1.143.134.316.298.577.492.782.193.205.416.358.668.457.258.094.542.141.852.141.399 0 .747-.076 1.046-.229.299-.152.548-.389.747-.712.205-.328.358-.747.457-1.256.1-.516.15-1.131.15-1.846Zm-61.417-32.46L85.986 111h-1.731l4.878-12.797h1.116l-.026 1.134ZM93.773 111l-4.245-11.663-.026-1.134h1.116L95.514 111h-1.74Zm-.22-4.737v1.388h-7.189v-1.388h7.19Zm4.808-8.06V111h-1.696V98.203h1.696Zm7.726 0-5.317 5.968-2.989 3.102-.281-1.81 2.25-2.479 4.298-4.78h2.039ZM104.452 111l-4.737-6.24 1.011-1.345 5.748 7.585h-2.022Zm11.312-7.295v1.38h-6.926v-1.38h6.926Zm-6.662-5.502V111h-1.697V98.203h1.697Zm8.138 0V111h-1.687V98.203h1.687Zm9.721 8.93 2.54-8.93h1.23l-.711 3.472-2.734 9.325h-1.222l.897-3.867Zm-2.628-8.93 2.021 8.754.607 4.043h-1.213l-3.102-12.797h1.687Zm9.686 8.745 1.977-8.745h1.696L134.599 111h-1.213l.633-4.052Zm-3.103-8.745 2.47 8.93.896 3.867h-1.221l-2.637-9.325-.721-3.472h1.213Zm9.615 3.287V111h-1.635v-9.51h1.635Zm-1.758-2.522c0-.264.08-.487.238-.668.164-.182.404-.273.72-.273.311 0 .548.091.712.273a.94.94 0 0 1 .255.668.92.92 0 0 1-.255.65c-.164.176-.401.264-.712.264-.316 0-.556-.088-.72-.264a.96.96 0 0 1-.238-.65Zm7.752 12.208a4.686 4.686 0 0 1-1.801-.334 4.08 4.08 0 0 1-1.38-.958 4.261 4.261 0 0 1-.879-1.459 5.356 5.356 0 0 1-.308-1.846v-.369c0-.773.114-1.462.343-2.065.229-.61.539-1.125.932-1.547a3.973 3.973 0 0 1 1.336-.958 3.831 3.831 0 0 1 1.546-.326c.68 0 1.266.118 1.758.352.498.234.906.563 1.222.984.316.416.551.909.703 1.477a7.06 7.06 0 0 1 .229 1.846v.729h-7.102v-1.327h5.476v-.123a4.09 4.09 0 0 0-.264-1.231 2.22 2.22 0 0 0-.703-.984c-.322-.258-.762-.387-1.319-.387a2.2 2.2 0 0 0-1.019.238 2.172 2.172 0 0 0-.8.685 3.45 3.45 0 0 0-.518 1.116c-.123.44-.185.947-.185 1.521v.369c0 .451.062.876.185 1.275.128.392.313.738.553 1.037.246.298.542.533.888.703.352.17.75.255 1.195.255.575 0 1.061-.118 1.459-.352a3.61 3.61 0 0 0 1.046-.94l.985.782c-.206.31-.466.606-.783.888a3.735 3.735 0 0 1-1.169.685c-.457.176-.999.264-1.626.264Zm6.663-7.655V111h-1.626v-9.51h1.538l.088 2.031Zm-.387 2.364-.677-.027c.006-.65.103-1.251.29-1.801.188-.557.451-1.04.791-1.451a3.529 3.529 0 0 1 2.786-1.292c.469 0 .891.065 1.266.194.375.123.694.322.958.597.269.276.474.633.615 1.073.141.433.211.964.211 1.591V111h-1.635v-6.249c0-.498-.073-.897-.219-1.195a1.356 1.356 0 0 0-.642-.66c-.281-.14-.627-.21-1.037-.21a2.42 2.42 0 0 0-1.108.254c-.328.17-.612.405-.852.704a3.513 3.513 0 0 0-.554 1.028 3.755 3.755 0 0 0-.193 1.213Zm9.624 3.181v1.31c0 .533-.135 1.096-.404 1.687a4.069 4.069 0 0 1-1.134 1.495l-.923-.642c.187-.258.346-.521.474-.791.129-.264.226-.539.291-.826a3.7 3.7 0 0 0 .105-.897v-1.336h1.591Zm10.582-10.933V111h-1.626v-10.837l-3.278 1.195v-1.467l4.649-1.758h.255Zm12.252 5.449v1.951c0 1.049-.094 1.934-.281 2.655-.188.72-.457 1.3-.809 1.74a3.081 3.081 0 0 1-1.274.958c-.493.193-1.049.29-1.67.29-.493 0-.947-.062-1.363-.185a3.226 3.226 0 0 1-1.125-.589 3.552 3.552 0 0 1-.843-1.072c-.235-.439-.414-.973-.537-1.6-.123-.626-.184-1.359-.184-2.197v-1.951c0-1.049.094-1.928.281-2.637.193-.709.466-1.277.817-1.705a2.98 2.98 0 0 1 1.266-.931 4.71 4.71 0 0 1 1.67-.282c.498 0 .955.062 1.371.185.422.117.797.307 1.125.571.328.258.607.604.835 1.037.234.428.413.952.536 1.574.123.621.185 1.35.185 2.188Zm-1.635 2.215v-2.487c0-.575-.035-1.079-.105-1.512a4.807 4.807 0 0 0-.29-1.125 2.209 2.209 0 0 0-.493-.756 1.739 1.739 0 0 0-.676-.422 2.437 2.437 0 0 0-.853-.14c-.387 0-.729.073-1.028.22-.299.14-.551.365-.756.676-.199.311-.352.718-.457 1.222-.106.504-.158 1.116-.158 1.837v2.487c0 .574.032 1.081.096 1.52.071.44.173.821.308 1.143.135.316.299.577.492.782.193.205.416.358.668.457.258.094.542.141.853.141.398 0 .747-.076 1.046-.229.298-.152.547-.389.747-.712.205-.328.357-.747.457-1.256.099-.516.149-1.131.149-1.846Zm4.781 3.841h.167c.938 0 1.699-.132 2.285-.396.586-.263 1.038-.618 1.354-1.063.316-.446.533-.947.65-1.503.118-.563.176-1.14.176-1.732v-1.96c0-.58-.067-1.095-.202-1.546a3.345 3.345 0 0 0-.545-1.134 2.41 2.41 0 0 0-.782-.695 1.934 1.934 0 0 0-.932-.237c-.375 0-.712.076-1.011.229a2.119 2.119 0 0 0-.747.624 2.99 2.99 0 0 0-.457.949 4.258 4.258 0 0 0-.158 1.186c0 .381.047.75.141 1.108.094.357.237.679.43.967.194.287.434.515.721.685.293.164.636.246 1.028.246.364 0 .704-.07 1.02-.211.322-.146.606-.343.853-.589.251-.252.451-.536.597-.852.153-.317.24-.648.264-.993h.773c0 .486-.096.967-.29 1.441a4.39 4.39 0 0 1-.791 1.283 4.01 4.01 0 0 1-1.195.932 3.3 3.3 0 0 1-1.494.343c-.633 0-1.181-.123-1.644-.369a3.322 3.322 0 0 1-1.142-.985 4.51 4.51 0 0 1-.66-1.371 5.815 5.815 0 0 1-.21-1.547c0-.609.084-1.18.254-1.714a4.17 4.17 0 0 1 .756-1.406c.334-.41.747-.73 1.24-.958.498-.228 1.072-.343 1.722-.343.733 0 1.357.147 1.872.44a3.61 3.61 0 0 1 1.257 1.177 5.26 5.26 0 0 1 .721 1.662c.152.615.228 1.248.228 1.898v.589c0 .662-.044 1.336-.132 2.021a8.076 8.076 0 0 1-.483 1.952 5.136 5.136 0 0 1-1.028 1.67c-.451.486-1.04.873-1.767 1.16-.721.281-1.611.422-2.672.422h-.167v-1.38Zm15.979-6.056v1.951c0 1.049-.094 1.934-.281 2.655-.188.72-.457 1.3-.809 1.74a3.081 3.081 0 0 1-1.274.958c-.493.193-1.049.29-1.67.29-.493 0-.947-.062-1.363-.185a3.226 3.226 0 0 1-1.125-.589 3.552 3.552 0 0 1-.843-1.072c-.235-.439-.414-.973-.537-1.6-.123-.626-.184-1.359-.184-2.197v-1.951c0-1.049.094-1.928.281-2.637.193-.709.466-1.277.817-1.705a2.98 2.98 0 0 1 1.266-.931 4.71 4.71 0 0 1 1.67-.282c.498 0 .955.062 1.371.185.422.117.797.307 1.125.571.328.258.607.604.835 1.037.234.428.413.952.536 1.574.123.621.185 1.35.185 2.188Zm-1.635 2.215v-2.487c0-.575-.035-1.079-.105-1.512a4.807 4.807 0 0 0-.29-1.125 2.209 2.209 0 0 0-.493-.756 1.739 1.739 0 0 0-.676-.422 2.437 2.437 0 0 0-.853-.14c-.387 0-.729.073-1.028.22-.299.14-.551.365-.756.676-.199.311-.352.718-.457 1.222-.106.504-.158 1.116-.158 1.837v2.487c0 .574.032 1.081.096 1.52.071.44.173.821.308 1.143.135.316.299.577.492.782.193.205.416.358.668.457.258.094.542.141.853.141.398 0 .747-.076 1.046-.229.298-.152.547-.389.747-.712.205-.328.357-.747.457-1.256.099-.516.149-1.131.149-1.846Zm10.855 1.336 2.54-8.93h1.23l-.712 3.472-2.733 9.325h-1.222l.897-3.867Zm-2.628-8.93 2.021 8.754.607 4.043h-1.213l-3.103-12.797h1.688Zm9.685 8.745 1.978-8.745h1.696L221.241 111h-1.213l.633-4.052Zm-3.102-8.745 2.469 8.93.897 3.867h-1.222l-2.637-9.325-.72-3.472h1.213Zm9.615 3.287V111h-1.635v-9.51h1.635Zm-1.758-2.522a.98.98 0 0 1 .237-.668c.164-.182.405-.273.721-.273.311 0 .548.091.712.273a.94.94 0 0 1 .255.668.92.92 0 0 1-.255.65c-.164.176-.401.264-.712.264-.316 0-.557-.088-.721-.264a.958.958 0 0 1-.237-.65Zm7.752 12.208a4.692 4.692 0 0 1-1.802-.334 4.1 4.1 0 0 1-1.38-.958 4.261 4.261 0 0 1-.879-1.459 5.356 5.356 0 0 1-.307-1.846v-.369c0-.773.114-1.462.343-2.065.228-.61.539-1.125.931-1.547a3.983 3.983 0 0 1 1.336-.958 3.836 3.836 0 0 1 1.547-.326c.68 0 1.266.118 1.758.352.498.234.905.563 1.222.984.316.416.55.909.703 1.477a7.06 7.06 0 0 1 .228 1.846v.729h-7.101v-1.327h5.475v-.123a4.058 4.058 0 0 0-.263-1.231 2.215 2.215 0 0 0-.704-.984c-.322-.258-.761-.387-1.318-.387a2.2 2.2 0 0 0-1.019.238 2.164 2.164 0 0 0-.8.685 3.45 3.45 0 0 0-.519 1.116c-.123.44-.184.947-.184 1.521v.369c0 .451.061.876.184 1.275.129.392.314.738.554 1.037.246.298.542.533.888.703.351.17.75.255 1.195.255.574 0 1.06-.118 1.459-.352a3.622 3.622 0 0 0 1.046-.94l.984.782c-.205.31-.466.606-.782.888a3.747 3.747 0 0 1-1.169.685c-.457.176-.999.264-1.626.264Zm6.662-7.655V111h-1.626v-9.51h1.538l.088 2.031Zm-.387 2.364-.676-.027c.005-.65.102-1.251.29-1.801.187-.557.451-1.04.791-1.451a3.529 3.529 0 0 1 2.786-1.292c.469 0 .89.065 1.265.194.375.123.695.322.958.597.27.276.475.633.616 1.073.14.433.211.964.211 1.591V111h-1.635v-6.249c0-.498-.073-.897-.22-1.195a1.35 1.35 0 0 0-.641-.66c-.282-.14-.627-.21-1.038-.21-.404 0-.773.085-1.107.254-.328.17-.612.405-.853.704a3.51 3.51 0 0 0-.553 1.028 3.756 3.756 0 0 0-.194 1.213Zm9.624 3.181v1.31c0 .533-.134 1.096-.404 1.687a4.047 4.047 0 0 1-1.134 1.495l-.923-.642c.188-.258.346-.521.475-.791.129-.264.226-.539.29-.826a3.7 3.7 0 0 0 .106-.897v-1.336h1.59Zm9.027-1.933 2.54-8.93h1.23l-.712 3.472-2.733 9.325h-1.222l.897-3.867Zm-2.628-8.93 2.021 8.754.607 4.043h-1.213l-3.103-12.797h1.688Zm9.685 8.745 1.978-8.745h1.696L265.731 111h-1.212l.632-4.052Zm-3.102-8.745 2.47 8.93.896 3.867h-1.222l-2.636-9.325-.721-3.472h1.213Zm13.157 11.171v-4.895c0-.375-.076-.701-.228-.976a1.501 1.501 0 0 0-.668-.65c-.299-.153-.668-.229-1.108-.229-.41 0-.77.07-1.081.211a1.882 1.882 0 0 0-.721.554 1.21 1.21 0 0 0-.254.738h-1.626c0-.34.087-.677.263-1.011.176-.334.428-.636.756-.905a3.779 3.779 0 0 1 1.195-.65 4.693 4.693 0 0 1 1.565-.247c.691 0 1.301.118 1.828.352.533.234.949.589 1.248 1.063.305.469.457 1.058.457 1.767v4.43c0 .316.026.653.079 1.011.059.357.144.665.255.922V111h-1.696a3.054 3.054 0 0 1-.194-.747 5.997 5.997 0 0 1-.07-.879Zm.281-4.14.018 1.143h-1.644a6.08 6.08 0 0 0-1.239.114 2.864 2.864 0 0 0-.914.325 1.54 1.54 0 0 0-.562.554 1.47 1.47 0 0 0-.194.765c0 .299.068.571.202.817.135.246.337.443.607.589.275.141.612.211 1.01.211.499 0 .938-.106 1.319-.316.381-.211.682-.469.905-.774.229-.305.352-.6.369-.888l.695.783c-.041.246-.153.518-.334.817a3.899 3.899 0 0 1-.73.861c-.299.27-.656.495-1.072.677a3.49 3.49 0 0 1-1.389.264c-.644 0-1.21-.126-1.696-.378a2.893 2.893 0 0 1-1.125-1.011 2.673 2.673 0 0 1-.396-1.433c0-.509.1-.958.299-1.344.199-.393.487-.718.862-.976a4.09 4.09 0 0 1 1.353-.597 7.125 7.125 0 0 1 1.767-.203h1.889Zm-4.842-6.284a.96.96 0 0 1 .246-.668c.164-.181.401-.272.712-.272.316 0 .556.09.72.272a.96.96 0 0 1 .246.668.938.938 0 0 1-.246.65c-.164.176-.404.264-.72.264-.311 0-.548-.088-.712-.263a.938.938 0 0 1-.246-.65Zm3.788.018a.98.98 0 0 1 .237-.668c.164-.182.404-.273.721-.273.31 0 .547.091.712.273a.945.945 0 0 1 .254.668.923.923 0 0 1-.254.65c-.165.176-.402.264-.712.264-.317 0-.557-.088-.721-.264a.958.958 0 0 1-.237-.65Zm6.02-1.468V111h-1.626V97.5h1.626Zm-.387 8.385-.676-.027c.006-.65.102-1.251.29-1.801.187-.557.451-1.04.791-1.451a3.529 3.529 0 0 1 2.786-1.292c.469 0 .89.065 1.265.194.375.123.695.322.958.597.27.276.475.633.616 1.073.14.433.211.964.211 1.591V111h-1.635v-6.249c0-.498-.073-.897-.22-1.195a1.35 1.35 0 0 0-.641-.66c-.282-.14-.627-.21-1.038-.21-.404 0-.773.085-1.107.254-.328.17-.612.405-.853.704a3.534 3.534 0 0 0-.553 1.028 3.756 3.756 0 0 0-.194 1.213Zm9.739-2.901V111h-1.626v-9.51h1.582l.044 1.494Zm2.97-1.546-.008 1.511a2.406 2.406 0 0 0-.387-.053 4.358 4.358 0 0 0-.404-.017c-.375 0-.706.059-.994.176-.287.117-.53.281-.729.492a2.388 2.388 0 0 0-.475.756 3.634 3.634 0 0 0-.219.949l-.457.264c0-.575.055-1.114.167-1.618a4.39 4.39 0 0 1 .536-1.336 2.63 2.63 0 0 1 .914-.914c.375-.222.82-.334 1.336-.334.117 0 .252.015.404.044.152.024.258.05.316.08Zm2.707.052V111h-1.634v-9.51h1.634Zm-1.757-2.522a.98.98 0 0 1 .237-.668c.164-.182.404-.273.721-.273.31 0 .547.091.712.273a.945.945 0 0 1 .254.668.923.923 0 0 1-.254.65c-.165.176-.402.264-.712.264-.317 0-.557-.088-.721-.264a.958.958 0 0 1-.237-.65Zm5.431 4.553V111h-1.626v-9.51h1.538l.088 2.031Zm-.386 2.364-.677-.027c.006-.65.102-1.251.29-1.801.187-.557.451-1.04.791-1.451a3.529 3.529 0 0 1 2.786-1.292c.469 0 .891.065 1.266.194.375.123.694.322.958.597.269.276.474.633.615 1.073.14.433.211.964.211 1.591V111h-1.635v-6.249c0-.498-.073-.897-.22-1.195a1.35 1.35 0 0 0-.641-.66c-.282-.14-.627-.21-1.037-.21-.405 0-.774.085-1.108.254-.328.17-.612.405-.852.704a3.513 3.513 0 0 0-.554 1.028 3.755 3.755 0 0 0-.193 1.213Zm14.308-4.395h1.477v9.308c0 .838-.17 1.553-.51 2.144a3.325 3.325 0 0 1-1.424 1.345c-.603.311-1.301.466-2.092.466-.328 0-.715-.053-1.16-.158a4.706 4.706 0 0 1-1.301-.519 3.243 3.243 0 0 1-1.063-.975l.852-.967c.399.48.815.814 1.248 1.002.44.187.874.281 1.301.281.516 0 .961-.097 1.336-.29.375-.193.665-.481.87-.861.211-.375.317-.838.317-1.389v-7.295l.149-2.092Zm-6.548 4.861v-.185c0-.727.085-1.386.255-1.978.176-.597.425-1.11.747-1.538a3.366 3.366 0 0 1 2.751-1.336c.598 0 1.119.106 1.565.317.451.205.832.507 1.142.905.317.393.566.867.747 1.424.182.557.308 1.186.378 1.89v.808a8.239 8.239 0 0 1-.378 1.881 4.414 4.414 0 0 1-.747 1.424c-.31.392-.691.694-1.142.905-.452.205-.979.308-1.582.308-.569 0-1.084-.12-1.547-.361a3.525 3.525 0 0 1-1.178-1.01 4.802 4.802 0 0 1-.756-1.53 6.94 6.94 0 0 1-.255-1.924Zm1.626-.185v.185c0 .474.047.92.141 1.336.099.416.249.782.448 1.098.205.317.466.566.782.747.317.176.695.264 1.134.264.539 0 .985-.114 1.336-.343.352-.228.63-.53.835-.905.211-.375.375-.782.492-1.222v-2.118a4.293 4.293 0 0 0-.299-.932 2.869 2.869 0 0 0-.509-.808 2.21 2.21 0 0 0-.765-.572 2.547 2.547 0 0 0-1.072-.21c-.446 0-.829.093-1.152.281a2.233 2.233 0 0 0-.782.756 3.609 3.609 0 0 0-.448 1.107 6.05 6.05 0 0 0-.141 1.336Zm12.252 5.01a4.695 4.695 0 0 1-1.802-.334 4.085 4.085 0 0 1-1.379-.958 4.261 4.261 0 0 1-.879-1.459 5.356 5.356 0 0 1-.308-1.846v-.369c0-.773.114-1.462.343-2.065.228-.61.539-1.125.931-1.547a3.983 3.983 0 0 1 1.336-.958 3.836 3.836 0 0 1 1.547-.326c.68 0 1.266.118 1.758.352.498.234.905.563 1.222.984.316.416.551.909.703 1.477a7.06 7.06 0 0 1 .228 1.846v.729h-7.101v-1.327h5.475v-.123a4.058 4.058 0 0 0-.263-1.231 2.22 2.22 0 0 0-.703-.984c-.323-.258-.762-.387-1.319-.387a2.2 2.2 0 0 0-1.019.238 2.172 2.172 0 0 0-.8.685 3.45 3.45 0 0 0-.519 1.116c-.123.44-.184.947-.184 1.521v.369c0 .451.061.876.184 1.275.129.392.314.738.554 1.037.246.298.542.533.888.703.351.17.75.255 1.195.255.574 0 1.061-.118 1.459-.352a3.61 3.61 0 0 0 1.046-.94l.984.782c-.205.31-.465.606-.782.888a3.735 3.735 0 0 1-1.169.685c-.457.176-.999.264-1.626.264Zm6.662-8.192V111h-1.626v-9.51h1.582l.044 1.494Zm2.971-1.546-.009 1.511a2.394 2.394 0 0 0-.386-.053 4.38 4.38 0 0 0-.405-.017c-.375 0-.706.059-.993.176-.287.117-.53.281-.729.492-.2.211-.358.463-.475.756a3.634 3.634 0 0 0-.22.949l-.457.264c0-.575.056-1.114.167-1.618.117-.503.296-.949.536-1.336.241-.392.545-.697.914-.914.375-.222.821-.334 1.336-.334.118 0 .252.015.405.044.152.024.257.05.316.08Z"/>
      <path fill="#fff" fill-opacity=".67" fill-rule="evenodd" d="M76 98.35c0-3.23-2.91-5.85-6.5-5.85S63 95.12 63 98.35c0 2.058 1.978 5.848 5.935 11.368l.565.782.838-1.164.28-.395C74.205 103.84 76 100.31 76 98.35Zm-9.75.41c0-1.728 1.455-3.13 3.25-3.13s3.25 1.402 3.25 3.13c0 1.73-1.455 3.131-3.25 3.131s-3.25-1.401-3.25-3.13Z" clip-rule="evenodd" opacity=".557"/>
      <path fill="#E7EAF0" d="M68.58 50c4.18 0 7.08-2.64 7.08-6.66s-2.9-6.68-7.08-6.68h-5.26V50h5.26Zm0-2.5h-2.42v-8.34h2.42c2.74 0 4.18 1.82 4.18 4.18 0 2.26-1.54 4.16-4.18 4.16Zm12.95 2.74c1.5 0 3.02-.46 3.98-1.34l-1.12-1.64c-.62.6-1.76.96-2.58.96-1.64 0-2.62-1.02-2.78-2.24h7.18v-.56c0-3.16-1.96-5.32-4.84-5.32-2.94 0-5 2.26-5 5.06 0 3.1 2.22 5.08 5.16 5.08Zm2.22-5.98h-4.76c.12-.96.8-2.14 2.38-2.14 1.68 0 2.32 1.22 2.38 2.14Zm9.19 5.98c2.48 0 4.28-1.86 4.28-5.08 0-3.22-1.8-5.06-4.28-5.06-1.18 0-2.24.52-2.98 1.46v-1.22h-2.54v13.34h2.54v-4.92c.78 1 1.84 1.48 2.98 1.48Zm-.8-2.26c-.82 0-1.76-.5-2.18-1.1v-3.42c.42-.62 1.36-1.1 2.18-1.1 1.46 0 2.44 1.14 2.44 2.8 0 1.68-.98 2.82-2.44 2.82ZM106.795 50v-6.24c0-2.78-2.02-3.66-4.22-3.66-1.52 0-3.04.48-4.22 1.52l.96 1.7c.82-.76 1.78-1.14 2.82-1.14 1.28 0 2.12.64 2.12 1.62v1.3c-.64-.76-1.78-1.18-3.06-1.18-1.54 0-3.36.86-3.36 3.12 0 2.16 1.82 3.2 3.36 3.2 1.26 0 2.4-.46 3.06-1.24v1h2.54Zm-4.58-1.48c-1 0-1.82-.52-1.82-1.42 0-.94.82-1.46 1.82-1.46.82 0 1.62.28 2.04.84v1.2c-.42.56-1.22.84-2.04.84ZM111.23 50v-6.38c.42-.62 1.54-1.1 2.38-1.1.28 0 .52.02.7.06V40.1c-1.2 0-2.4.7-3.08 1.56v-1.32h-2.54V50h2.54Zm7.282.24c1.06 0 1.74-.28 2.12-.62l-.54-1.92c-.14.14-.5.28-.88.28-.56 0-.88-.46-.88-1.06v-4.36h1.96v-2.22h-1.96V37.7h-2.56v2.64h-1.6v2.22h1.6v5.04c0 1.72.96 2.64 2.74 2.64Zm17.433-.24v-6.98c0-1.98-1.06-2.92-2.84-2.92-1.48 0-2.76.88-3.32 1.76-.36-1.1-1.26-1.76-2.68-1.76-1.48 0-2.76.92-3.16 1.5v-1.26h-2.54V50h2.54v-6.5c.38-.54 1.12-1.14 2-1.14 1.04 0 1.44.64 1.44 1.54V50h2.56v-6.52c.36-.52 1.1-1.12 2-1.12 1.04 0 1.44.64 1.44 1.54V50h2.56Zm6.406.24c1.5 0 3.02-.46 3.98-1.34l-1.12-1.64c-.62.6-1.76.96-2.58.96-1.64 0-2.62-1.02-2.78-2.24h7.18v-.56c0-3.16-1.96-5.32-4.84-5.32-2.94 0-5 2.26-5 5.06 0 3.1 2.22 5.08 5.16 5.08Zm2.22-5.98h-4.76c.12-.96.8-2.14 2.38-2.14 1.68 0 2.32 1.22 2.38 2.14ZM157.3 50v-6.82c0-1.88-1.02-3.08-3.14-3.08-1.58 0-2.76.76-3.38 1.5v-1.26h-2.54V50h2.54v-6.5c.42-.58 1.2-1.14 2.2-1.14 1.08 0 1.78.46 1.78 1.8V50h2.54Zm5.138.24c1.06 0 1.74-.28 2.12-.62l-.54-1.92c-.14.14-.5.28-.88.28-.56 0-.88-.46-.88-1.06v-4.36h1.96v-2.22h-1.96V37.7h-2.56v2.64h-1.6v2.22h1.6v5.04c0 1.72.96 2.64 2.74 2.64Zm16.445-.24v-6.82c0-1.88-1.02-3.08-3.14-3.08-1.58 0-2.76.76-3.38 1.5v-1.26h-2.54V50h2.54v-6.5c.42-.58 1.199-1.14 2.2-1.14 1.08 0 1.78.46 1.78 1.8V50h2.54Zm10.237 0v-6.24c0-2.78-2.02-3.66-4.22-3.66-1.52 0-3.04.48-4.22 1.52l.96 1.7c.82-.76 1.78-1.14 2.82-1.14 1.28 0 2.12.64 2.12 1.62v1.3c-.64-.76-1.78-1.18-3.06-1.18-1.54 0-3.36.86-3.36 3.12 0 2.16 1.82 3.2 3.36 3.2 1.26 0 2.4-.46 3.06-1.24v1h2.54Zm-4.58-1.48c-1 0-1.82-.52-1.82-1.42 0-.94.82-1.46 1.82-1.46.82 0 1.62.28 2.04.84v1.2c-.42.56-1.22.84-2.04.84ZM205.554 50v-6.98c0-1.98-1.06-2.92-2.84-2.92-1.48 0-2.76.88-3.32 1.76-.36-1.1-1.26-1.76-2.68-1.76-1.48 0-2.76.92-3.16 1.5v-1.26h-2.54V50h2.54v-6.5c.38-.54 1.12-1.14 2-1.14 1.04 0 1.44.64 1.44 1.54V50h2.56v-6.52c.36-.52 1.1-1.12 2-1.12 1.04 0 1.44.64 1.44 1.54V50h2.56Zm6.406.24c1.5 0 3.02-.46 3.98-1.34l-1.12-1.64c-.62.6-1.76.96-2.58.96-1.64 0-2.62-1.02-2.78-2.24h7.18v-.56c0-3.16-1.96-5.32-4.84-5.32-2.94 0-5 2.26-5 5.06 0 3.1 2.22 5.08 5.16 5.08Zm2.22-5.98h-4.76c.12-.96.8-2.14 2.38-2.14 1.68 0 2.32 1.22 2.38 2.14Zm4.892 5.96c.88 0 1.62-.74 1.62-1.62 0-.88-.74-1.62-1.62-1.62-.88 0-1.62.74-1.62 1.62 0 .88.74 1.62 1.62 1.62ZM69.34 75.24c4.06 0 6.02-2.26 6.02-5.58v-8h-2.9v7.92c0 1.86-1.06 3.14-3.12 3.14s-3.14-1.28-3.14-3.14v-7.92h-2.88v8.02c0 3.28 1.96 5.56 6.02 5.56ZM86.363 75v-6.82c0-1.88-1.02-3.08-3.14-3.08-1.58 0-2.76.76-3.38 1.5v-1.26h-2.54V75h2.54v-6.5c.42-.58 1.2-1.14 2.2-1.14 1.08 0 1.78.46 1.78 1.8V75h2.54Zm3.157-10.7c.84 0 1.52-.68 1.52-1.52s-.68-1.5-1.52-1.5c-.82 0-1.52.66-1.52 1.5s.7 1.52 1.52 1.52ZM90.8 75v-9.66h-2.54V75h2.54Zm7.134 0 3.88-9.66h-2.74l-2.52 6.72-2.52-6.72h-2.72l3.88 9.66h2.74Zm8.929.24c1.5 0 3.02-.46 3.98-1.34l-1.12-1.64c-.62.6-1.76.96-2.58.96-1.64 0-2.62-1.02-2.78-2.24h7.18v-.56c0-3.16-1.96-5.32-4.84-5.32-2.94 0-5 2.26-5 5.06 0 3.1 2.22 5.08 5.16 5.08Zm2.22-5.98h-4.76c.12-.96.8-2.14 2.38-2.14 1.68 0 2.32 1.22 2.38 2.14Zm6.209 5.74v-6.38c.42-.62 1.54-1.1 2.38-1.1.28 0 .52.02.7.06V65.1c-1.2 0-2.4.7-3.08 1.56v-1.32h-2.54V75h2.54Zm7.522.24c2.68 0 4.18-1.34 4.18-3.1 0-3.9-5.72-2.7-5.72-4.14 0-.54.6-.96 1.52-.96 1.18 0 2.28.5 2.86 1.12l1.02-1.74c-.96-.76-2.26-1.32-3.9-1.32-2.54 0-3.96 1.42-3.96 3.04 0 3.8 5.74 2.5 5.74 4.1 0 .6-.52 1.04-1.62 1.04-1.2 0-2.64-.66-3.34-1.32l-1.1 1.78c1.02.94 2.64 1.5 4.32 1.5ZM129.5 64.3c.84 0 1.52-.68 1.52-1.52s-.68-1.5-1.52-1.5c-.82 0-1.52.66-1.52 1.5s.7 1.52 1.52 1.52Zm1.28 10.7v-9.66h-2.54V75h2.54Zm5.134.24c1.06 0 1.74-.28 2.12-.62l-.54-1.92c-.14.14-.5.28-.88.28-.56 0-.88-.46-.88-1.06v-4.36h1.96v-2.22h-1.96V62.7h-2.56v2.64h-1.6v2.22h1.6v5.04c0 1.72.96 2.64 2.74 2.64Zm2.553 3.54c.32.08.96.14 1.26.14 1.66-.04 2.94-.52 3.66-2.34l4.54-11.24h-2.74l-2.52 6.72-2.52-6.72h-2.72l3.92 9.8-.36.82c-.24.52-.68.7-1.34.7-.24 0-.58-.06-.8-.16l-.38 2.28ZM164.988 75V61.66h-2.86v5.24h-6.3v-5.24h-2.84V75h2.84v-5.6h6.3V75h2.86Zm6.424.24c3.2 0 5.12-2.32 5.12-5.08 0-2.74-1.92-5.06-5.12-5.06-3.18 0-5.1 2.32-5.1 5.06 0 2.76 1.92 5.08 5.1 5.08Zm0-2.26c-1.58 0-2.46-1.3-2.46-2.82 0-1.5.88-2.8 2.46-2.8s2.48 1.3 2.48 2.8c0 1.52-.9 2.82-2.48 2.82Zm9.859 2.26c2.68 0 4.18-1.34 4.18-3.1 0-3.9-5.72-2.7-5.72-4.14 0-.54.6-.96 1.52-.96 1.18 0 2.28.5 2.86 1.12l1.02-1.74c-.96-.76-2.26-1.32-3.9-1.32-2.54 0-3.96 1.42-3.96 3.04 0 3.8 5.74 2.5 5.74 4.1 0 .6-.52 1.04-1.62 1.04-1.2 0-2.64-.66-3.34-1.32l-1.1 1.78c1.02.94 2.64 1.5 4.32 1.5Zm10.947 0c2.48 0 4.28-1.86 4.28-5.08 0-3.22-1.8-5.06-4.28-5.06-1.18 0-2.24.52-2.98 1.46v-1.22h-2.54v13.34h2.54v-4.92c.78 1 1.84 1.48 2.98 1.48Zm-.8-2.26c-.82 0-1.76-.5-2.18-1.1v-3.42c.42-.62 1.36-1.1 2.18-1.1 1.46 0 2.44 1.14 2.44 2.8 0 1.68-.98 2.82-2.44 2.82Zm7.575-8.68c.84 0 1.52-.68 1.52-1.52s-.68-1.5-1.52-1.5c-.82 0-1.52.66-1.52 1.5s.7 1.52 1.52 1.52Zm1.28 10.7v-9.66h-2.54V75h2.54Zm5.133.24c1.06 0 1.74-.28 2.12-.62l-.54-1.92c-.14.14-.5.28-.88.28-.56 0-.88-.46-.88-1.06v-4.36h1.96v-2.22h-1.96V62.7h-2.56v2.64h-1.6v2.22h1.6v5.04c0 1.72.96 2.64 2.74 2.64Zm11.233-.24v-6.24c0-2.78-2.02-3.66-4.22-3.66-1.52 0-3.04.48-4.22 1.52l.96 1.7c.82-.76 1.78-1.14 2.82-1.14 1.28 0 2.12.64 2.12 1.62v1.3c-.64-.76-1.78-1.18-3.06-1.18-1.54 0-3.36.86-3.36 3.12 0 2.16 1.82 3.2 3.36 3.2 1.26 0 2.4-.46 3.06-1.24v1h2.54Zm-4.58-1.48c-1 0-1.82-.52-1.82-1.42 0-.94.82-1.46 1.82-1.46.82 0 1.62.28 2.04.84v1.2c-.42.56-1.22.84-2.04.84Zm9.014 1.48V61.66h-2.54V75h2.54Zm12.906.26c2.42 0 4.32-1 5.68-2.52v-5.12h-6.36v2.48h3.52v1.6c-.54.5-1.66 1.02-2.84 1.02-2.42 0-4.18-1.86-4.18-4.38 0-2.52 1.76-4.38 4.18-4.38 1.42 0 2.56.8 3.16 1.74l2.36-1.28c-1-1.58-2.74-2.98-5.52-2.98-3.9 0-7.1 2.68-7.1 6.9 0 4.2 3.2 6.92 7.1 6.92Zm8.51-10.96c.84 0 1.52-.68 1.52-1.52s-.68-1.5-1.52-1.5c-.82 0-1.52.66-1.52 1.5s.7 1.52 1.52 1.52Zm1.28 10.7v-9.66h-2.54V75h2.54Zm6.433.24c1.5 0 3.02-.46 3.98-1.34l-1.12-1.64c-.62.6-1.76.96-2.58.96-1.64 0-2.62-1.02-2.78-2.24h7.18v-.56c0-3.16-1.96-5.32-4.84-5.32-2.94 0-5 2.26-5 5.06 0 3.1 2.22 5.08 5.16 5.08Zm2.22-5.98h-4.76c.12-.96.8-2.14 2.38-2.14 1.68 0 2.32 1.22 2.38 2.14Zm7.15 5.98c2.68 0 4.18-1.34 4.18-3.1 0-3.9-5.72-2.7-5.72-4.14 0-.54.6-.96 1.52-.96 1.18 0 2.28.5 2.86 1.12l1.02-1.74c-.96-.76-2.26-1.32-3.9-1.32-2.54 0-3.96 1.42-3.96 3.04 0 3.8 5.74 2.5 5.74 4.1 0 .6-.52 1.04-1.62 1.04-1.2 0-2.64-.66-3.34-1.32l-1.1 1.78c1.02.94 2.64 1.5 4.32 1.5Zm8.906 0c2.68 0 4.18-1.34 4.18-3.1 0-3.9-5.72-2.7-5.72-4.14 0-.54.6-.96 1.52-.96 1.18 0 2.28.5 2.86 1.12l1.02-1.74c-.96-.76-2.26-1.32-3.9-1.32-2.54 0-3.96 1.42-3.96 3.04 0 3.8 5.74 2.5 5.74 4.1 0 .6-.52 1.04-1.62 1.04-1.2 0-2.64-.66-3.34-1.32l-1.1 1.78c1.02.94 2.64 1.5 4.32 1.5Zm9.967 0c1.5 0 3.02-.46 3.98-1.34l-1.12-1.64c-.62.6-1.76.96-2.58.96-1.64 0-2.62-1.02-2.78-2.24h7.18v-.56c0-3.16-1.96-5.32-4.84-5.32-2.94 0-5 2.26-5 5.06 0 3.1 2.22 5.08 5.16 5.08Zm2.22-5.98h-4.76c.12-.96.8-2.14 2.38-2.14 1.68 0 2.32 1.22 2.38 2.14ZM293.394 75v-6.82c0-1.88-1.02-3.08-3.14-3.08-1.58 0-2.76.76-3.38 1.5v-1.26h-2.54V75h2.54v-6.5c.42-.58 1.2-1.14 2.2-1.14 1.08 0 1.78.46 1.78 1.8V75h2.54Zm3.197.22c.88 0 1.62-.74 1.62-1.62 0-.88-.74-1.62-1.62-1.62-.88 0-1.62.74-1.62 1.62 0 .88.74 1.62 1.62 1.62Z"/>
    </g>
  </g>
  <defs>
    <clipPath id="a">
      <rect width="402" height="436" fill="#fff" rx="8"/>
    </clipPath>
    <clipPath id="b">
      <path fill="#fff" d="M0 0h402v436H0z"/>
    </clipPath>
    <clipPath id="c">
      <path fill="#fff" d="M0 0h479v448H0z" transform="translate(-77 -12)"/>
    </clipPath>
    <pattern id="e" width="1" height="1" patternContentUnits="objectBoundingBox">
      <use xlink:href="#g" transform="scale(.00055 .0005)"/>
    </pattern>
  </defs>
</svg>
